<svg width="168" height="18" viewBox="0 0 168 18" fill="none" xmlns="http://www.w3.org/2000/svg">
<g clip-path="url(#clip0_678_115)">
<path fill-rule="evenodd" clip-rule="evenodd" d="M86.2532 0.613626C83.0062 0.592058 80.3778 1.43092 78.2573 3.06495C76.1148 4.70011 75.0551 6.6866 75.0551 9.16176C75.0551 11.1937 76.1148 13.0496 77.8362 14.5077C79.9129 16.2745 82.7837 17.0697 86.3179 17.0697C87.7199 17.0601 89.1151 16.8746 90.4708 16.5174C92.1735 16.0759 94.4245 15.0594 95.109 13.5576L95.0647 11.327C95.021 9.78098 95.1317 9.714 96.722 9.69244V9.16176H90.737V9.69471C91.3557 9.69471 91.7751 9.67257 92.1503 9.91549C92.5044 10.1805 92.4153 11.373 92.4153 11.8373L92.3938 13.1847C91.8829 14.1564 90.7143 14.6865 89.876 15.0179C89.1024 15.3272 87.6886 15.6581 86.3639 15.6803C84.1544 15.7024 82.4318 15.0838 80.9959 14.1785C79.5383 13.2284 78.1245 11.2629 78.1245 8.811C78.1245 6.44765 79.6269 4.50373 81.3943 3.28857C82.5425 2.49398 84.4858 1.80892 86.4076 1.83163C88.0644 1.85376 89.611 2.25049 90.737 2.89184C92.0186 3.59846 93.3881 5.03441 93.8955 6.09406L94.4064 5.89541L93.5891 2.42757C92.5703 1.80552 91.3108 1.36452 90.1184 1.0779C88.8502 0.785897 87.5545 0.630257 86.2532 0.613626ZM8.60489 0.980274C6.34654 0.988788 4.09727 1.02171 0.0221351 1.00525L0 1.51606C0.552243 1.51606 0.751459 1.49392 1.08235 1.75898C1.39168 2.02176 1.43595 2.30781 1.43595 3.28119V13.6836C1.43595 14.5673 1.50178 15.4725 1.30314 15.7155C1.01595 16.0469 0.817297 16.1128 0.111243 16.0912V16.619H8.50387C10.8014 16.619 14.5768 16.5526 16.124 15.338C16.7205 15.0071 17.8023 13.9912 17.7802 12.2681C17.7802 10.1681 16.8749 9.52898 16.0576 9.06471C15.3289 8.66741 14.1807 8.35865 12.8333 8.13787C13.9151 7.76214 14.158 7.65146 14.843 7.12136C15.5496 6.61054 16.0139 5.59744 16.0139 4.58149C16.0139 1.93038 13.142 1.09152 10.9336 0.98141C10.1106 0.975734 9.35749 0.975734 8.60659 0.978004L8.60489 0.980274ZM167.956 1.00525L162.478 1.02681V1.49109C163.383 1.53479 163.65 1.55749 163.826 2.19771C163.914 2.44119 163.892 2.9923 163.892 3.7659V13.8601C163.892 15.6933 164.047 16.1133 162.587 16.1133V16.6241H168L167.978 16.1133C166.499 16.1133 166.564 15.5384 166.564 13.8601V3.7659C166.564 1.95422 166.52 1.49109 167.956 1.49109V1.00525ZM24.5615 1.02738V1.60119C25.0916 1.60119 25.3129 1.6239 25.6217 1.80041C25.9753 2.02176 26.4163 3.03714 26.9475 4.07522L33.5739 16.619H35.8044C37.174 13.9021 39.3801 9.48471 41.0828 6.14911C42.2316 3.94071 43.0693 2.17614 43.4025 1.75444C43.6011 1.51095 44.1534 1.59892 44.5064 1.59892V1.02738L39.8682 1.04952V1.60119C39.9125 1.60119 41.2156 1.42525 41.0828 2.26411C40.9727 2.92646 35.8044 12.6012 35.1636 14.1478L30.0169 4.45152C29.6418 3.74376 29.3325 3.21365 29.1781 2.79479C28.7581 1.80041 29.3994 1.6029 30.2831 1.6029V1.02738H24.5615ZM142.456 1.04214C142.126 1.04214 141.775 1.04214 141.402 1.04214C140.904 1.04214 140.368 1.04895 139.794 1.04895H132.726V1.53479C133.698 1.53479 134.096 1.82198 134.096 2.94803V15.2518C134.096 16.0906 133.477 16.0685 132.726 16.0464V16.619H138.248V16.0464C137.34 16.0464 136.812 15.9589 136.789 14.876V10.2821C137.386 10.3258 137.917 10.2821 138.844 10.2821C139.176 10.2821 140.944 10.3043 141.472 10.2821C143.482 10.2821 144.41 12.6659 145.493 14.3459C146.401 15.7597 146.001 16.6213 151.788 16.6213C151.788 16.4885 151.744 16.2013 151.744 16.0685C149.27 16.0906 148.806 14.6104 147.745 12.7113C146.752 10.9888 146.486 9.86214 143.924 9.57495C147.812 8.84619 148.828 7.07765 148.828 5.06903C148.805 3.03771 147.304 1.77714 144.852 1.22546C144.243 1.08868 143.446 1.05009 142.456 1.04214ZM53.5409 1.04895V1.53479C54.3139 1.53479 54.5347 1.60119 54.7561 1.91109C54.9763 2.19487 54.9763 2.68354 54.9763 3.54568V14.897C54.9763 15.9135 54.579 16.0889 53.6295 16.1116V16.6224H67.5224L69.1348 13.3975L68.6269 13.1983C68.0968 14.0599 66.8822 14.901 64.9604 14.901H57.649V2.86006C57.649 2.1313 57.7818 1.91109 57.9583 1.734C58.2234 1.51322 58.3556 1.55749 59.0406 1.53479V1.04895H53.5409ZM112.405 1.04895L105.977 13.2857C105.404 14.3902 105.183 14.7654 104.918 15.2722C104.608 15.8023 104.431 16.1559 103.371 16.1803V16.619H108.164L108.186 16.1116C107.324 16.1332 106.95 16.0668 106.927 15.2938C106.927 15.0503 107.148 14.6535 107.48 14.0576L108.388 12.4684H117.665L118.767 14.3488C119.496 15.5639 119.296 16.0061 117.993 16.0725V16.619H123.736V16.0248C122.366 16.0248 122.431 15.6502 121.218 13.4191L114.438 1.04952L112.405 1.04895ZM139.678 2.17273C141.376 2.16252 143.097 2.24765 144.187 2.77152C145.115 3.21365 145.89 3.72163 145.89 5.26881C145.89 7.45508 144.542 8.02946 143.526 8.40519C141.738 8.8689 138.799 8.71395 136.789 8.73608V2.21927C137.651 2.21927 138.662 2.17898 139.678 2.17273ZM8.80751 2.30044C10.1606 2.30044 11.4859 2.35265 12.2129 2.81579C13.1625 3.435 13.3832 3.87657 13.3832 4.80227C13.3832 5.37609 12.9201 6.37103 12.4343 6.74619C11.2855 7.67417 9.23149 7.71787 7.707 7.71787H4.06435V2.30838H7.46522C7.90168 2.30838 8.3563 2.30157 8.80751 2.30044ZM112.935 3.39073L116.845 10.7237H109.224L112.935 3.39073ZM8.68946 9.10557C10.9348 9.09933 12.5291 9.1856 13.65 10.0171C14.2465 10.4587 14.8209 11.2317 14.8209 12.1597C14.8209 14.7217 11.6187 14.8987 8.45959 14.8987H4.06435V9.10954C5.25624 9.10954 6.49411 9.13168 7.68714 9.10954C8.03505 9.10954 8.36822 9.10444 8.68946 9.10387V9.10557Z" fill="black"/>
</g>
<defs>
<clipPath id="clip0_678_115">
<rect width="168" height="16.4565" fill="white" transform="translate(0 0.61322)"/>
</clipPath>
</defs>
</svg>
