<svg width="168" height="48" viewBox="0 0 168 48" fill="none" xmlns="http://www.w3.org/2000/svg">
<g clip-path="url(#clip0_2723_71)">
<g opacity="0.98">
<path fill-rule="evenodd" clip-rule="evenodd" d="M103.696 13.7506C104.339 13.7284 104.984 13.7507 105.625 13.8171C103.816 17.0461 101.998 20.272 100.17 23.4949C101.9 23.5064 103.629 23.5396 105.358 23.5946C105.115 23.8709 104.86 24.1369 104.594 24.3928C102.665 24.3702 101.002 24.348 99.605 24.3263L99.472 24.4593L89.2953 42.019C89.0064 42.6419 88.8914 43.3315 88.9628 44.0144C89.1361 44.7421 89.5906 45.1745 90.3263 45.3115C91.6048 45.396 92.8792 45.0947 93.9846 44.4468C96.1957 43.0783 98.2676 41.4966 100.17 39.7243C103.464 36.5476 106.417 33.0367 108.983 29.2483C110.05 27.5908 111.126 25.939 112.209 24.293C113.628 24.2598 115.047 24.2487 116.466 24.2598C116.476 24.3281 116.465 24.3979 116.433 24.4593C113.096 30.2465 109.792 36.0554 106.522 41.886C106.206 42.6186 106.092 43.4222 106.19 44.214C106.486 45.327 107.206 45.7593 108.352 45.511C108.984 45.361 109.59 45.1142 110.147 44.7794C110.743 44.3838 111.319 43.9626 111.877 43.5156C114.618 41.0199 117.164 38.3182 119.493 35.4341C122.39 30.7782 126.303 27.264 131.232 24.8917C132.846 24.1609 134.584 23.7433 136.354 23.6611C137.424 23.6402 138.48 23.9042 139.414 24.4261C140.025 24.7682 140.487 25.3253 140.711 25.9891C141.168 27.3859 141.013 28.7162 140.245 29.98C139.205 31.5296 137.886 32.8717 136.354 33.9376C132.674 36.4842 128.605 37.8699 124.149 38.0947C123.941 38.0475 123.73 38.0036 123.517 37.9617C122.756 39.5551 122.446 41.3261 122.619 43.0833C122.947 44.5869 123.868 45.4849 125.379 45.7771C126.713 45.9725 128.074 45.8818 129.37 45.511C130.522 45.1568 131.636 44.6889 132.696 44.1142C136.499 41.9257 140.027 39.2908 143.205 36.2656C146.99 32.7101 150.279 28.6607 152.983 24.2265C154.646 24.1715 156.309 24.1826 157.971 24.2598C156.924 26.0463 155.915 27.8422 154.945 29.6474C157.15 27.7086 159.598 26.0651 162.228 24.7586C163.054 24.3669 163.944 24.1302 164.855 24.0602C167.113 24.2106 168.155 25.4078 167.981 27.652C167.649 29.2709 166.673 30.2021 165.055 30.4456C163.448 30.1689 162.672 29.2155 162.727 27.5855C162.949 25.9647 163.869 25.1777 165.487 25.2242C165.422 25.1147 165.331 25.0232 165.221 24.9582C164.626 24.752 164.005 24.752 163.359 24.9582C161.417 25.6068 159.596 26.5733 157.971 27.8183C155.791 29.4207 153.929 31.4173 152.484 33.7048C149.763 38.1772 147.069 42.6669 144.402 47.1739C142.762 47.2288 141.121 47.2178 139.48 47.1406C142.54 41.9658 145.611 36.7999 148.692 31.6428C148.8 31.4523 148.889 31.2518 148.958 31.0442C145.296 35.1516 141.254 38.9041 136.886 42.2518C134.862 43.7745 132.676 45.0684 130.368 46.1096C128.561 46.8454 126.675 47.3699 124.747 47.6727C123.52 47.7061 122.295 47.5376 121.122 47.1739C118.294 45.8968 117.108 43.7129 117.564 40.6222C117.734 39.6516 117.979 38.6954 118.295 37.7621C117.047 39.277 115.703 40.71 114.271 42.0523C112.778 43.4788 111.226 44.8312 109.615 46.1096C108.522 46.8346 107.304 47.3531 106.024 47.6395C104.983 47.8092 103.919 47.7639 102.897 47.5064C101.51 46.7593 100.9 45.5953 101.068 44.0144C101.221 42.9824 101.511 41.9756 101.933 41.0213C102.702 39.3944 103.5 37.798 104.328 36.2323C101.407 39.421 98.2136 42.3477 94.7827 44.9789C92.7328 46.4422 90.4602 47.2293 87.965 47.3401C84.693 47.0524 83.5401 45.323 84.5063 42.152C85.1138 40.8936 85.7568 39.652 86.4352 38.4273C89.0186 33.993 91.5462 29.5366 94.0178 25.0579C92.5729 26.9241 90.9092 28.6101 89.0625 30.0798C88.1551 30.7661 87.1449 31.3049 86.0694 31.6761C84.9719 32.0424 84.0296 31.8096 83.2426 30.9777C83.0322 30.67 82.8932 30.3193 82.8357 29.9511C82.7782 29.5828 82.8035 29.2064 82.91 28.8492C83.4944 26.8166 84.7582 26.2179 86.7013 27.0534C86.6751 26.0313 86.1652 25.4548 85.1715 25.324L85.0717 25.2242C84.0177 25.0806 82.9534 25.2136 81.879 25.6233C80.1592 26.2854 78.6207 27.3452 77.3893 28.7162L76.1255 30.3125C72.6384 35.8452 69.3016 41.4767 66.1152 47.2071L63.887 47.3401C62.7907 47.2681 61.6908 47.2681 60.5945 47.3401C60.5846 47.2718 60.5962 47.202 60.6278 47.1406C62.4458 44.2543 64.2306 41.3499 65.9821 38.4273C64.8492 39.7709 63.6519 41.0679 62.3904 42.3183C60.7941 43.8889 59.0063 45.2521 57.0693 46.3757C55.3891 47.3586 53.4596 47.8323 51.5153 47.7392C48.8273 47.0209 47.5303 45.2693 47.6243 42.4846C44.928 44.6829 41.8344 46.3426 38.5118 47.3734C36.688 47.9055 34.9476 47.717 33.2905 46.808C31.4334 45.4751 30.6131 43.657 30.8295 41.3539C30.8907 40.8169 30.9572 40.2848 31.029 39.7575C27.2257 43.1941 22.8469 45.644 17.8925 47.1073C16.872 47.3493 15.8397 47.538 14.7996 47.6727C14.6721 47.6248 14.5366 47.6022 14.4005 47.6062C12.7036 47.7854 10.9898 47.7182 9.31218 47.4067C6.98951 47.1304 4.92757 46.2768 3.12637 44.8459C1.26974 43.1165 0.238772 40.977 0.0334657 38.4273C-0.0960915 36.141 0.151089 33.8489 0.76512 31.6428C3.25014 23.4958 7.96114 16.2047 14.3672 10.5911C17.2661 8.08899 20.4079 5.88305 23.7457 4.00624C26.9129 2.2334 30.3896 1.08202 33.9889 0.614027C37.4813 0.197649 40.7183 0.907131 43.6999 2.74248C45.0696 3.1122 46.5097 3.13506 47.8903 2.80899C48.962 2.62446 50.0103 2.32336 51.0165 1.91105C48.8569 4.48513 46.9627 7.27067 45.3628 10.2253C45.2425 8.36628 44.7326 6.55334 43.8662 4.90418C42.1892 2.29151 39.7836 1.02774 36.6495 1.11288C34.1227 1.19059 31.6362 1.767 29.3329 2.80899C26.0797 4.34104 23.093 6.38455 20.4865 8.86177C18.2056 11.0514 16.1037 13.4202 14.201 15.9455C12.8152 17.8731 11.4628 19.8242 10.1436 21.7987C8.28418 25.2726 6.91856 28.9888 6.08624 32.8401C5.66312 35.0334 5.61813 37.283 5.95322 39.4915C6.3523 41.8576 7.44978 43.8198 9.24566 45.378C10.7339 46.2595 12.4384 46.7086 14.1677 46.675C17.0966 46.5581 19.9709 45.8452 22.615 44.5798C25.749 43.0675 28.6317 41.0822 31.162 38.6933C33.5332 34.1851 36.8314 30.2296 40.8398 27.0866C42.4788 25.8124 44.2935 24.7818 46.2275 24.027C48.5151 23.1359 51.0171 22.9506 53.411 23.4949C55.0432 23.9964 55.9855 25.0939 56.2378 26.7873C56.3379 27.3805 56.3603 27.9842 56.3044 28.5832C57.0169 27.0791 57.8279 25.6238 58.7321 24.2265C60.2841 24.1933 61.8361 24.1822 63.3881 24.1933C60.2752 29.6248 57.1158 35.0346 53.9098 40.4227C53.2736 41.4107 52.8962 42.543 52.8124 43.7151C52.7862 45.0188 53.4181 45.7394 54.708 45.8768C55.8212 45.802 56.9022 45.472 57.8674 44.9124C59.3997 43.957 60.8266 42.8422 62.1243 41.5867C65.015 38.6321 67.6517 35.4392 70.0063 32.0419C71.7525 29.549 73.3821 26.9771 74.895 24.3263C76.4914 24.2482 78.0877 24.2372 79.684 24.293C79.01 25.3453 78.3892 26.3984 77.8217 27.4524C79.6419 25.8056 81.7815 24.8965 84.2403 24.7254C86.9957 24.9799 88.0821 26.4654 87.4994 29.1818C87.3939 29.5463 87.2605 29.9021 87.1004 30.246C88.2426 29.6924 89.3053 28.9877 90.2598 28.1508C92.6359 25.9558 94.7456 23.489 96.5454 20.801C98.0898 18.5347 99.542 16.2067 100.902 13.8171L102.997 13.684C103.235 13.712 103.467 13.7346 103.696 13.7506ZM51.3491 23.7942C53.9777 23.7498 55.3967 25.0469 55.606 27.6852C55.5356 28.7319 55.2765 29.7572 54.841 30.7116C52.7452 35.4327 49.6204 39.6256 45.6954 42.9835C43.8265 44.5277 41.6137 45.5999 39.2435 46.1096C36.4672 46.44 35.0482 45.2095 34.9866 42.4181C35.0052 41.3247 35.2192 40.2435 35.6185 39.2254C36.9768 35.7905 38.8864 32.6003 41.2722 29.7804C43.3017 27.5259 45.7833 25.7242 48.5555 24.4926C49.4511 24.1354 50.3907 23.9005 51.3491 23.7942ZM134.758 24.4593C136.429 24.2469 137.272 24.9786 137.285 26.6543C137.116 28.2728 136.506 29.814 135.523 31.1107C132.68 34.9495 128.866 37.0336 124.082 37.363L123.716 37.2965C125.618 32.9497 128.457 29.0771 132.031 25.9559C132.836 25.2877 133.762 24.7797 134.758 24.4593ZM66.1152 38.2277C66.1212 38.2715 66.111 38.3159 66.0865 38.3527C66.062 38.3895 66.0249 38.416 65.9821 38.4273C65.9761 38.3835 65.9863 38.339 66.0108 38.3023C66.0354 38.2655 66.0725 38.239 66.1152 38.2277Z" fill="#010101"/>
<path fill-rule="evenodd" clip-rule="evenodd" d="M103.696 13.7506C104.358 13.6627 105.029 13.6627 105.691 13.7506C105.69 13.7677 105.682 13.7837 105.67 13.7959C105.658 13.8081 105.642 13.8156 105.625 13.8171C104.984 13.7507 104.339 13.7284 103.696 13.7506Z" fill="#4C4D4C"/>
<path fill-rule="evenodd" clip-rule="evenodd" d="M117.398 14.8813C118.782 14.9474 119.558 15.6679 119.726 17.043C119.529 18.5263 118.686 19.2357 117.198 19.1715C116.095 18.8894 115.497 18.1799 115.402 17.043C115.576 15.8586 116.242 15.138 117.398 14.8813Z" fill="#010101"/>
</g>
</g>
<defs>
<clipPath id="clip0_2723_71">
<rect width="168" height="48" fill="white"/>
</clipPath>
</defs>
</svg>
