<svg width="168" height="108" viewBox="0 0 168 108" fill="none" xmlns="http://www.w3.org/2000/svg">
<g clip-path="url(#clip0_950_91)">
<path fill-rule="evenodd" clip-rule="evenodd" d="M24.5139 100.271C24.4798 100.33 24.454 100.393 24.4371 100.458C23.3594 102.52 21.7404 104.25 19.754 105.461C17.7675 106.673 15.4886 107.321 13.1618 107.335C9.67109 107.335 6.32333 105.948 3.85501 103.48C1.38669 101.012 0 97.6639 0 94.1732C0 90.6824 1.38669 87.3347 3.85501 84.8663C6.32333 82.398 9.67109 81.0113 13.1618 81.0113C15.5021 81.0263 17.7934 81.6838 19.7856 82.912C21.7778 84.1402 23.3944 85.8919 24.459 87.9761C24.5177 88.0494 24.5657 88.1307 24.6016 88.2174C24.6016 88.2174 20.5105 91.2117 20.4776 91.1459C20.4669 91.0799 20.4363 91.0187 20.3899 90.9704C19.8196 89.5255 18.8245 88.2876 17.536 87.4201C16.2474 86.5525 14.7261 86.0963 13.1728 86.1115C11.0847 86.1885 9.10788 87.0722 7.65789 88.5766C6.20789 90.0811 5.39771 92.0892 5.39771 94.1786C5.39771 96.2681 6.20789 98.2762 7.65789 99.7806C9.10788 101.285 11.0847 102.169 13.1728 102.246C14.6722 102.23 16.1359 101.786 17.3912 100.966C18.6466 100.146 19.6414 98.9839 20.2582 97.6172C20.3075 97.5377 20.348 97.4531 20.3789 97.3649L24.5139 100.271Z" fill="#161413"/>
<path fill-rule="evenodd" clip-rule="evenodd" d="M29.8333 81.2197H34.7581V90.433H47.7224V81.2197H52.691V106.83H47.7224V95.5771H34.7581V106.83H29.8333V81.2197Z" fill="#161413"/>
<path fill-rule="evenodd" clip-rule="evenodd" d="M122.33 106.83V81.2197H140.241V86.3967H127.32V91.5079H139.254V96.619H127.32V101.741H142.062V106.83H122.33Z" fill="#161413"/>
<path fill-rule="evenodd" clip-rule="evenodd" d="M149.058 106.83V81.2197H154.081V101.741H168V106.83H149.058Z" fill="#161413"/>
<path fill-rule="evenodd" clip-rule="evenodd" d="M95.4111 106.83H90.3987V81.2197H97.3525L108.321 96.5752V81.2197H113.3V106.83H109.33L95.4111 87.5155V106.83Z" fill="#161413"/>
<path fill-rule="evenodd" clip-rule="evenodd" d="M71.5221 86.3967L67.1349 96.619H76.0739L71.5221 86.3967ZM64.9412 101.752L62.616 106.83H56.6822L68.0343 81.2197H74.9771L86.406 106.83H80.4722L78.2018 101.741L64.9412 101.752Z" fill="#161413"/>
<path fill-rule="evenodd" clip-rule="evenodd" d="M86.7469 71.3593C81.0721 74.6141 74.6429 76.3235 68.101 76.317C61.4226 76.3093 54.8626 74.5525 49.0742 71.2215C43.2858 67.8904 38.4709 63.1014 35.1087 57.331C35.1087 57.2762 35.1087 57.2762 35.1087 57.2213C35.1087 57.1665 35.0539 57.1665 35.0539 57.1226L45.7698 51.5508C45.8372 51.6067 45.8899 51.6782 45.9233 51.7592C48.2526 55.5432 51.5112 58.6685 55.3892 60.8379C59.2671 63.0072 63.6356 64.1485 68.079 64.1532C70.9632 64.1437 73.8279 63.6811 76.5684 62.7822C70.6019 55.9422 67.3204 47.1694 67.3332 38.0928C67.328 29.0405 70.5654 20.2856 76.4587 13.4144C73.7604 12.5002 70.928 12.0442 68.079 12.0653C63.5322 12.0818 59.0682 13.2831 55.1272 15.5507C51.1862 17.8184 47.9044 21.0741 45.6052 24.9968C45.5842 25.0183 45.5683 25.0442 45.5588 25.0727C45.5493 25.1012 45.5464 25.1315 45.5504 25.1613L34.7467 19.5676C34.7854 19.4731 34.8371 19.3845 34.9003 19.3043C38.2372 13.4467 43.0638 8.57569 48.8908 5.18547C54.7177 1.79525 61.3376 0.00638796 68.079 0.000322525C74.6298 -0.0193416 81.067 1.71112 86.725 5.01278C92.3957 1.70356 98.8491 -0.027171 105.415 0.000322525C112.156 0.00638796 118.776 1.79525 124.603 5.18547C130.43 8.57569 135.257 13.4467 138.593 19.3043C138.653 19.3872 138.704 19.4753 138.747 19.5676L127.932 25.1613C127.944 25.1355 127.95 25.1075 127.95 25.0791C127.95 25.0507 127.944 25.0226 127.932 24.9968C125.632 21.0655 122.344 17.8039 118.394 15.5355C114.444 13.2671 109.97 12.0709 105.415 12.0653C102.565 12.0512 99.7321 12.5147 97.035 13.4363C102.924 20.3091 106.158 29.0638 106.15 38.1148C106.166 47.1901 102.889 55.9631 96.9254 62.8041C99.6659 63.703 102.531 64.1657 105.415 64.1752C109.855 64.1697 114.221 63.0292 118.097 60.8619C121.972 58.6946 125.23 55.5725 127.56 51.7921C127.593 51.7112 127.646 51.6396 127.713 51.5837L133.087 54.3257L138.528 57.1226C138.528 57.1226 138.528 57.1226 138.528 57.2213C138.528 57.3201 138.528 57.2213 138.528 57.331C135.176 63.0908 130.375 67.8734 124.603 71.204C118.83 74.5346 112.287 76.2973 105.623 76.317C99.0032 76.3641 92.4893 74.6533 86.7469 71.3593ZM86.7469 56.2232C82.0978 51.3418 79.4921 44.8668 79.464 38.1257C79.4437 31.4433 82.0608 25.0227 86.7469 20.2586C91.433 25.0227 94.0501 31.4433 94.0298 38.1257C94.0017 44.8668 91.396 51.3418 86.7469 56.2232Z" fill="#161413"/>
</g>
<defs>
<clipPath id="clip0_950_91">
<rect width="168" height="108" fill="white"/>
</clipPath>
</defs>
</svg>
