<svg width="168" height="70" viewBox="0 0 168 70" fill="none" xmlns="http://www.w3.org/2000/svg">
<g clip-path="url(#clip0_678_119)">
<path d="M98.3042 69.2809H96.5365L92.2836 58.7798H94.2718L97.4221 67.1247L100.572 58.7798H102.561L98.3042 69.2809ZM55.9148 60.327L54.6967 61.4331C54.3377 60.973 53.8759 60.6034 53.3482 60.3542C52.8205 60.1049 52.2418 59.9829 51.6584 59.998C49.3936 59.998 47.7344 61.6536 47.7344 63.9744C47.7344 66.2951 49.3936 68.1223 51.7704 68.1223C52.8418 68.0897 53.8716 67.7005 54.6967 67.0162L54.6442 64.0864H49.3936L50.3877 62.4272H56.3559V67.6218C55.0292 68.7839 53.6501 69.5575 51.8054 69.5575C48.6025 69.5575 46.0053 67.2367 46.0053 63.9744C46.0053 60.712 48.5465 58.4473 51.6969 58.4473C53.4646 58.4473 54.7912 59.0004 55.8973 60.327H55.9148ZM58.4561 69.2809V58.7798H67.9071L66.5804 60.4915H60.3358V62.2627H66.5804V64.0129H60.3358V67.5517H66.5804L67.9071 69.2634L58.4561 69.2809ZM69.5662 69.2809V58.7798H70.9664L77.9671 66.0746V58.7798H79.7908V69.2809H78.5762L71.3899 61.8181V69.2809H69.5662ZM84.3763 57.0647H86.368L87.5301 58.0063H85.6504L84.3763 57.0647ZM81.835 69.2809V58.7798H91.286L89.9593 60.4915H83.7147V62.2627H89.9593V64.0129H83.7147V67.5517H89.9593L91.286 69.2634L81.835 69.2809ZM103.39 69.2809V58.7798H112.841L111.571 60.4915H105.27V62.2627H111.571V64.0129H105.27V67.5517H111.571L112.841 69.2634L103.39 69.2809Z" fill="#161413"/>
<path d="M31.9268 1.7414H29.8266C21.8143 1.68889 1.86219 3.34456 1.86219 15.0638C1.86219 20.9759 7.99833 23.4647 13.1369 23.4647C13.8544 23.4647 14.628 23.4086 15.4016 23.3526C19.2048 18.406 23.7772 14.1018 28.9445 10.6043C33.9745 7.17396 42.2634 2.53248 48.5641 2.53248C50.1112 2.53248 52.0644 3.63859 52.0644 5.35377C52.0644 11.0454 39.9602 18.5046 35.0947 20.5524C30.1754 22.5983 25.0014 23.9677 19.7141 24.6233C16.7843 28.7677 13.1369 33.8537 13.1369 39.1043C13.1369 40.928 14.628 41.9046 16.3432 41.9046C23.3614 41.9046 33.9185 35.5514 33.9185 27.7001C33.9185 26.2649 32.8124 25.4914 31.4683 25.4914C26.2737 25.4914 20.5786 30.4654 18.2054 34.8303L17.8554 34.7743C19.3815 29.3208 26.2352 24.0702 31.8358 24.0702C32.3965 24.0557 32.9544 24.1537 33.4766 24.3583C33.9988 24.5629 34.4748 24.87 34.8764 25.2615C35.278 25.653 35.5971 26.1209 35.815 26.6378C36.0328 27.1546 36.145 27.7098 36.1448 28.2707C36.1448 30.2624 35.3712 32.03 34.5416 33.7417C36.6418 32.6916 38.742 31.589 40.7897 30.4269L48.0285 21.7495L52.488 16.3904C54.6967 13.7897 60.0593 7.32448 63.8186 7.32448C64.6482 7.32448 65.1453 8.04555 65.1453 8.81563C65.1453 16.4429 52.0994 25.0118 45.9668 28.2146L45.1932 29.2123C47.4579 28.2147 49.7437 27 52.2114 27C53.4261 27 54.6967 27.8296 54.6967 29.1562C54.6864 29.9319 54.4356 30.6853 53.9791 31.3125L47.1254 41.0575C46.9796 41.2302 46.8839 41.4397 46.8489 41.6631C46.866 41.7427 46.9103 41.8138 46.9741 41.8643C47.038 41.9148 47.1175 41.9414 47.1989 41.9396C49.2991 41.9396 53.6116 38.2922 55.2147 36.9131C57.7385 32.3066 63.1536 27 68.7367 27C70.8369 27 72.44 28.4002 72.44 30.5389C72.44 32.03 71.887 33.3392 71.2254 34.6273C76.5285 31.8655 81.6705 28.3267 85.3739 23.6292L88.8568 19.2082L92.3921 19.2642L83.9912 30.0943C85.8149 28.8237 88.1917 27.3886 90.5124 27.3886C91.0226 27.4134 91.5062 27.6232 91.8728 27.9789C92.2394 28.3345 92.4639 28.8116 92.5041 29.3208C92.4675 29.7755 92.3144 30.213 92.0596 30.5914L85.2619 40.5394C85.1625 40.6452 85.1042 40.783 85.0974 40.928C85.0964 40.9862 85.1072 41.0439 85.129 41.0979C85.1508 41.1518 85.1833 41.2008 85.2244 41.2419C85.2656 41.2831 85.3146 41.3155 85.3685 41.3374C85.4225 41.3592 85.4802 41.37 85.5384 41.369C88.1357 41.369 91.0095 38.6072 93.0012 37.0601C96.1515 32.5096 101.07 27 107.094 27C107.995 26.9663 108.883 27.2146 109.636 27.7104C110.389 28.2061 110.969 28.9245 111.294 29.7653L112.897 27.4971H116.433L107.038 40.4869C106.869 40.6668 106.77 40.9018 106.761 41.1485C106.761 41.481 107.038 41.5895 107.314 41.5895C110.962 41.5895 119.418 31.1445 120.801 27.6616C120.604 27.5565 120.441 27.3963 120.333 27.2006C120.225 27.0049 120.176 26.782 120.192 26.559C120.192 25.1588 121.354 22.9676 123.01 22.9676C123.895 22.9676 124.228 24.0177 124.228 24.7353C124.206 25.451 124.075 26.1591 123.839 26.8355C125.002 26.8355 127.655 26.8355 127.655 28.5472C127.633 29.1882 127.399 29.8039 126.99 30.2974L120.413 39.9164C120.156 40.2094 120.001 40.5779 119.972 40.9665C119.972 41.299 120.248 41.4635 120.581 41.4635C124.392 41.4635 128.372 37.3716 130.749 34.6658C133.402 30.8504 137.491 26.65 142.521 26.65C144.509 26.65 145.892 28.0501 146.389 29.9123L164.409 6.14485L168 6.20086L143.294 38.8103C142.909 39.3073 142.409 39.9724 142.409 40.6339C142.409 40.8137 142.478 40.9867 142.601 41.117C142.725 41.2473 142.894 41.325 143.074 41.334C146.721 41.334 151.695 34.9809 153.631 32.2331L154.072 32.4011C151.751 36.6015 146.889 43.2312 141.471 43.2312C140.144 43.2312 139.259 42.1811 139.259 40.8545C139.27 40.5577 139.307 40.2626 139.371 39.9724C137.214 41.4075 134.95 43.0107 132.296 43.0107C130.585 43.0107 128.869 42.0166 128.869 40.1369C128.881 39.5011 128.974 38.8693 129.146 38.2572C126.437 40.3049 122.957 42.6817 119.418 42.6817C118.204 42.6817 117.154 41.9046 117.154 40.6339C117.154 39.4753 117.707 38.5337 118.368 37.5956L124.245 29.3208C124.41 29.1002 124.686 28.8237 124.686 28.6207C124.686 28.2322 123.857 28.2322 123.58 28.2322H123.251C120.542 33.0417 112.029 43.1017 106.117 43.1017C104.958 43.1017 103.852 42.2721 103.852 41.0575C103.861 40.7051 103.897 40.354 103.961 40.0074C101.528 41.4985 98.9308 43.1017 96.001 43.1017C93.7363 43.1017 92.6862 41.4425 92.6862 39.3983V39.2898C90.4739 40.837 87.3236 43.1402 84.5058 43.1402C83.1267 43.1402 82.0205 42.1986 82.0205 40.7635C82.0205 39.6573 82.5736 38.6072 83.2352 37.6691L88.7062 30.2624C88.8807 30.0649 88.996 29.8223 89.0388 29.5623C89.0388 29.4503 88.9828 29.3383 88.8743 29.3383C85.5559 29.3383 78.0966 37.6306 76.2169 40.0634L65.6038 53.7148L61.6624 53.6588L79.0172 31.6625C76.0874 33.7627 72.8811 35.3099 69.7308 36.9691C66.801 40.1194 62.8245 43.1577 58.2916 43.1577C56.4679 43.1577 54.7912 41.8871 54.7912 39.9514C54.8001 39.4828 54.8375 39.0152 54.9032 38.5512L53.4086 39.6013C51.0878 41.152 48.1055 43.5252 45.2282 43.5252C44.9925 43.5149 44.7611 43.4581 44.5474 43.3582C44.3336 43.2582 44.1417 43.117 43.9827 42.9427C43.8236 42.7683 43.7006 42.5643 43.6206 42.3423C43.5406 42.1203 43.5052 41.8847 43.5165 41.649C43.5165 40.4869 44.1816 39.4928 44.7872 38.6072L51.2523 29.5448C51.4087 29.3595 51.4887 29.1218 51.4764 28.8797C51.4657 28.7708 51.4137 28.6701 51.3309 28.5985C51.2482 28.5268 51.1411 28.4897 51.0318 28.4947C48.326 28.4947 43.128 33.0802 41.1398 34.6833L34.8951 43.0842H30.1591L38.063 33.6332C36.3478 34.5188 34.6921 35.3484 32.9769 36.178C28.8885 40.0984 24.191 43.6933 18.2754 43.6933C13.7459 43.6933 10.5956 40.7635 10.5956 36.2305C10.5956 32.0861 12.3073 28.2742 14.5195 24.8473C14.115 24.891 13.7081 24.9085 13.3014 24.8998C7.49778 24.8998 0 22.0995 0 15.1723C0 3.89762 16.6372 0.820801 25.0381 0.820801C27.3819 0.838311 29.7214 1.02313 32.0388 1.37386L31.9268 1.7414ZM20.9847 22.7436C26.1933 22.0211 31.24 20.4135 35.9067 17.9901C39.4456 16.2224 49.6142 9.53671 49.6142 4.78321C49.6142 4.33867 49.0611 4.17415 48.7286 4.17415C44.0871 4.17415 36.7363 9.31268 33.1975 11.7454C28.6601 14.8578 24.5537 18.5558 20.9847 22.7436ZM48.3995 24.8998C52.488 22.5791 63.7066 13.7371 63.7066 9.14817C63.7033 9.09077 63.679 9.0366 63.6383 8.99594C63.5977 8.95528 63.5435 8.93098 63.4861 8.92764C59.7827 8.92764 50.6083 21.97 48.3995 24.8998ZM67.0775 36.451C66.8346 36.071 66.7014 35.6313 66.6924 35.1804C66.6924 33.1362 68.5721 32.1946 70.3398 32.03C70.7249 31.33 71.1694 30.5389 71.1694 29.7093C71.1694 28.9357 70.3958 28.7117 69.7693 28.7117C65.5163 28.7117 57.28 36.5595 57.28 40.7075C57.28 41.369 57.665 41.9221 58.3301 41.9221C61.7744 41.9221 65.1453 39.0483 67.0775 36.451ZM109.747 30.1504C109.76 29.9219 109.724 29.6934 109.642 29.4798C109.56 29.2661 109.434 29.0721 109.273 28.9105C109.111 28.7489 108.916 28.6233 108.703 28.542C108.489 28.4607 108.26 28.4255 108.032 28.4387C103.887 28.4387 95.763 36.4895 95.763 40.7635C95.7626 41.0325 95.8655 41.2915 96.0505 41.4869C96.2355 41.6823 96.4884 41.7992 96.7571 41.8136C100.905 41.8101 109.747 34.4068 109.747 30.1504ZM144.842 29.7653C144.842 28.9917 144.457 28.0501 143.515 28.0501C139.259 28.0501 131.743 36.6715 131.743 40.5954C131.74 40.7631 131.771 40.9296 131.834 41.085C131.897 41.2405 131.99 41.3817 132.109 41.5002C132.228 41.6188 132.369 41.7123 132.524 41.7751C132.68 41.838 132.846 41.8689 133.014 41.8661C136.847 41.8661 144.842 33.7067 144.842 29.7653Z" fill="#161413"/>
</g>
<defs>
<clipPath id="clip0_678_119">
<rect width="168" height="68.7367" fill="white" transform="translate(0 0.820801)"/>
</clipPath>
</defs>
</svg>
