<svg width="168" height="55" viewBox="0 0 168 55" fill="none" xmlns="http://www.w3.org/2000/svg">
<g clip-path="url(#clip0_950_179)">
<path d="M14.8476 40.2829C12.4787 43.0341 10.6138 45.2601 9.18575 47.0032C7.6947 48.8387 6.77486 50.0693 6.42205 50.8884C7.59389 50.3423 10.6726 46.5538 13.0037 44.2311C14.3982 42.845 16.6494 40.8332 18.0439 40.0519L18.2623 40.2871C15.8682 42.9416 10.1644 50.0105 10.1644 50.7875C10.1644 50.8631 10.1644 50.8842 10.282 50.8842C11.0674 50.8842 13.0079 48.7841 13.7723 48.1918V48.6119C12.3611 49.8425 11.1472 51.1866 10.1854 51.1866C9.87038 51.1866 9.73597 51.0522 9.73597 50.7666C9.73597 49.1453 11.1262 47.3098 14.1461 44.0463C15.1458 42.971 15.6918 42.4418 16.6914 41.4086C15.2046 42.6686 14.3016 43.4373 13.0667 44.6679C10.072 47.6794 7.34188 51.2118 6.38004 51.2118C6.18684 51.2118 6.10703 51.0774 6.10703 50.8421C6.10703 48.9899 7.55609 47.4442 11.2018 43.5423C11.8487 42.8366 12.6929 42.0386 13.4195 41.2784C12.0857 42.3035 10.8227 43.4176 9.63937 44.6133C7.6779 46.5496 6.30444 48.0532 5.1116 49.2335C3.59954 50.7371 2.26809 51.1866 1.33145 51.1866C0.52922 51.1866 0 50.8547 0 50.1701C0 49.8971 0.27301 49.4687 0.625824 49.4687C0.978638 49.4687 1.09624 49.6451 1.09624 49.8593C1.10458 49.9675 1.07076 50.0746 1.00187 50.1584C0.932972 50.2422 0.834343 50.296 0.726628 50.3087C0.491419 50.3087 0.390615 50.1701 0.373814 49.9559C0.313184 50.0345 0.278013 50.1298 0.27301 50.2289C0.27301 50.5985 0.78543 50.9136 1.31045 50.9136C2.31009 50.9136 3.49033 50.4053 5.0906 48.8135C5.38461 48.5405 6.83366 46.9402 9.32016 44.4789C10.3618 43.4457 12.6803 41.1818 14.6544 40.0309L14.8686 40.2661" fill="#00549B"/>
<path d="M16.9655 49.0655C15.907 49.9559 15.088 50.6741 14.6134 50.6741C14.4118 50.6741 14.3068 50.5985 14.3068 50.3843C14.315 50.2075 14.3461 50.0324 14.3992 49.8635C13.7691 50.3969 13.3995 50.6573 12.9669 50.6573C12.6309 50.6573 12.4167 50.4599 12.4167 49.9097C12.4167 48.5153 14.1976 47.8726 15.0292 47.8726C15.4492 47.8726 15.5206 48.0112 15.5206 48.2926L15.8272 47.944L16.7177 47.8642L14.8276 50.0399C14.6764 50.2247 14.6134 50.3297 14.6134 50.3927C14.6127 50.399 14.6134 50.4053 14.6155 50.4112C14.6176 50.4171 14.621 50.4224 14.6254 50.4269C14.6299 50.4313 14.6352 50.4347 14.6411 50.4368C14.647 50.4388 14.6533 50.4396 14.6596 50.4389C14.8738 50.4389 16.1044 49.5191 16.9655 48.7379V49.0655ZM15.0418 48.07C14.3068 48.07 12.7527 49.7501 12.7527 50.2289C12.7508 50.2575 12.7551 50.2862 12.7652 50.313C12.7753 50.3399 12.7911 50.3642 12.8113 50.3845C12.8316 50.4048 12.856 50.4205 12.8828 50.4306C12.9096 50.4407 12.9383 50.445 12.9669 50.4431C13.4751 50.4431 15.277 48.8975 15.277 48.2842C15.2737 48.2248 15.2472 48.1691 15.2032 48.129C15.1592 48.0889 15.1013 48.0677 15.0418 48.07Z" fill="#00549B"/>
<path d="M16.7936 48.8975C17.3606 48.3767 17.9613 47.8726 18.3771 47.8726C18.6207 47.8726 18.7131 47.9482 18.7131 48.238C18.6768 48.5909 18.5298 48.9231 18.2931 49.1873C19.0155 48.6539 19.9983 47.8726 20.6158 47.8726C20.893 47.8726 20.9518 48.0112 20.9518 48.3178C20.9424 48.5004 20.8972 48.6793 20.8186 48.8444C20.7401 49.0094 20.6298 49.1573 20.494 49.2797C20.0739 49.6997 19.3389 50.1197 19.3389 50.3549C19.3389 50.3843 19.4019 50.4431 19.4943 50.4431C19.8933 50.4431 20.9854 49.6031 21.922 48.7295V49.0655C21.2164 49.6955 20.1537 50.6573 19.4775 50.6573C19.4215 50.665 19.3644 50.6592 19.311 50.6404C19.2576 50.6217 19.2095 50.5905 19.1705 50.5495C19.1315 50.5085 19.1029 50.4588 19.0869 50.4045C19.0709 50.3502 19.068 50.2929 19.0785 50.2373C19.1577 49.7967 19.3897 49.3981 19.7337 49.1117C20.0277 48.8345 20.6746 48.3305 20.6746 48.1456C20.6753 48.1374 20.6742 48.129 20.6712 48.1213C20.6682 48.1135 20.6635 48.1065 20.6574 48.1008C20.6514 48.0952 20.6441 48.091 20.6361 48.0885C20.6282 48.0861 20.6198 48.0855 20.6116 48.0868C20.242 48.0868 18.2427 49.4477 17.075 50.6279H16.235L18.1083 48.5279C18.2007 48.4187 18.4317 48.1876 18.4317 48.1078C18.4317 48.028 18.4317 48.0784 18.3855 48.0784C18.2007 48.0784 17.3858 48.6581 16.8188 49.2251V48.8891" fill="#00549B"/>
<path d="M21.7739 48.8975C22.1882 48.5038 22.6546 48.1688 23.16 47.902H24L22.0763 50.0777C21.9545 50.2289 21.8621 50.3213 21.8621 50.3843C21.8621 50.4473 21.8621 50.4137 21.9251 50.4137C22.3073 50.4137 23.8908 49.2797 25.2307 47.8936H26.0707L24.21 50.0231C24.0714 50.1911 23.9202 50.3297 23.9202 50.3885C23.9202 50.4473 23.9496 50.4347 23.9958 50.4347C24.4158 50.4347 25.6759 49.4561 26.4571 48.7211V49.0571C25.4113 49.9601 24.504 50.6489 23.937 50.6489C23.6934 50.6489 23.5842 50.5271 23.5842 50.3297C23.641 49.9464 23.8123 49.5892 24.0756 49.3049C23.2776 50.0063 22.4165 50.6489 21.8789 50.6489C21.6773 50.6489 21.5555 50.5733 21.5555 50.3003C21.5555 49.7165 21.9545 49.2713 22.4291 48.6455L21.7697 49.2251V48.8891" fill="#00549B"/>
<path d="M28.3563 47.6248C28.8771 47.0284 30.4563 45.1047 31.1536 44.4579C31.708 43.8909 32.569 43.1979 33.0899 43.1979C33.1559 43.1881 33.2234 43.1942 33.2866 43.2157C33.3499 43.2372 33.4071 43.2735 33.4535 43.3216C33.4999 43.3696 33.5342 43.428 33.5535 43.492C33.5728 43.5559 33.5765 43.6236 33.5645 43.6893C33.5645 44.2395 32.7496 45.6802 28.9695 47.608L27.4154 49.4771C27.5685 49.5347 27.7307 49.5646 27.8942 49.5653C28.5169 49.5051 29.0913 49.2036 29.4945 48.7253V49.0613C29.0873 49.5025 28.5233 49.7664 27.9237 49.7963C27.6987 49.7913 27.4761 49.7502 27.2642 49.6745L23.6983 53.9461H22.8835L24.4501 52.1232C25.3294 51.0345 26.1389 49.8912 26.8736 48.7001L26.273 49.2335V48.9269L26.7644 48.3935C26.7644 48.2254 26.9492 47.8726 27.1844 47.8726C27.4196 47.8726 27.3818 47.9188 27.3818 48.1036L28.3563 47.6248ZM33.0899 43.4247C32.737 43.4247 32.1994 43.9161 31.7962 44.3151C30.9531 45.1956 30.1581 46.121 29.4147 47.0872C32.5522 45.3399 33.3503 44.0673 33.3503 43.6851C33.3492 43.6522 33.3416 43.6198 33.3278 43.5898C33.3141 43.5599 33.2945 43.533 33.2703 43.5107C33.2461 43.4884 33.2176 43.4712 33.1866 43.46C33.1556 43.4489 33.1227 43.444 33.0899 43.4457V43.4247ZM27.9405 48.1036L27.3104 48.4397C27.2384 48.6594 27.1227 48.8623 26.9702 49.0361L27.0332 49.1453L27.9405 48.1036ZM26.819 49.2797L26.525 49.7249L26.8652 49.3553L26.819 49.2797Z" fill="#00549B"/>
<path d="M33.4893 49.0655C32.4309 49.9559 31.6161 50.6741 31.1373 50.6741C30.9398 50.6741 30.8306 50.5985 30.8306 50.3843C30.8389 50.2075 30.87 50.0324 30.923 49.8635C30.293 50.3969 29.9234 50.6573 29.495 50.6573C29.1548 50.6573 28.9406 50.4599 28.9406 49.9097C28.9406 48.5153 30.7214 47.8726 31.5531 47.8726C31.9731 47.8726 32.0445 48.0112 32.0445 48.2927L32.3553 47.944L33.2457 47.8642L31.3557 50.0399C31.2002 50.2247 31.1373 50.3297 31.1373 50.3927C31.1366 50.399 31.1373 50.4053 31.1394 50.4112C31.1415 50.4171 31.1449 50.4224 31.1493 50.4269C31.1537 50.4313 31.1591 50.4347 31.165 50.4368C31.1709 50.4389 31.1772 50.4396 31.1835 50.4389C31.3977 50.4389 32.6283 49.5191 33.4893 48.7379V49.0655ZM31.5699 48.07C30.8306 48.07 29.2808 49.7501 29.2808 50.2289C29.2782 50.2577 29.282 50.2867 29.2918 50.3138C29.3017 50.341 29.3174 50.3657 29.3378 50.3861C29.3582 50.4065 29.3829 50.4222 29.4101 50.4321C29.4372 50.4419 29.4662 50.4457 29.495 50.4431C29.999 50.4431 31.8009 48.8975 31.8009 48.2843C31.7998 48.255 31.793 48.2263 31.7808 48.1997C31.7686 48.1731 31.7512 48.1492 31.7298 48.1293C31.7083 48.1094 31.6832 48.0939 31.6557 48.0837C31.6283 48.0736 31.5991 48.0689 31.5699 48.07Z" fill="#00549B"/>
<path d="M36.4711 49.0655C35.3328 50.0903 34.4088 50.6741 33.531 50.6741C33.0101 50.6741 32.8547 50.3549 32.8547 49.9097C32.8547 48.4985 34.686 47.8558 35.4672 47.8558C35.8873 47.8558 35.9755 48.0112 35.9755 48.2758C35.9812 48.4175 35.9312 48.5558 35.8362 48.661C35.7412 48.7662 35.6087 48.83 35.4672 48.8387C35.4262 48.8432 35.3847 48.8386 35.3457 48.8251C35.3067 48.8116 35.2713 48.7895 35.2419 48.7605C35.2125 48.7315 35.1899 48.6964 35.1759 48.6576C35.1618 48.6188 35.1566 48.5773 35.1606 48.5363C35.1604 48.495 35.1689 48.4542 35.1855 48.4165C35.202 48.3788 35.2264 48.345 35.2569 48.3172C35.2874 48.2895 35.3233 48.2685 35.3625 48.2556C35.4016 48.2427 35.443 48.2381 35.484 48.2422C35.5316 48.2438 35.5783 48.2555 35.621 48.2765C35.6638 48.2975 35.7015 48.3273 35.7318 48.364C35.778 48.1666 35.6688 48.0742 35.484 48.0742C34.7154 48.0742 33.2076 49.7543 33.2076 50.2625C33.2076 50.4011 33.426 50.4641 33.594 50.4641C34.2366 50.4641 35.3286 49.7753 36.4543 48.7337V49.0697" fill="#00549B"/>
<path d="M40.0371 45.4701L40.9275 45.4071L39.6675 46.831H40.6335L40.4193 47.062H39.4743L36.8786 50.0021C36.7232 50.1869 36.614 50.3087 36.614 50.3843C36.614 50.4599 36.6602 50.4599 36.7526 50.4599C37.2902 50.4599 38.5838 49.4519 39.3357 48.7463V49.0823C38.2898 49.9853 37.475 50.6909 36.7232 50.6909C36.3998 50.6909 36.278 50.6153 36.278 50.2919C36.278 49.6031 37.0928 48.7757 37.7984 47.9524C37.4162 48.2087 36.7694 48.8219 36.2612 49.2503V48.9143C36.9529 48.2304 37.7097 47.6157 38.5208 47.0788H38.0126L38.2436 46.8478H38.8149L40.0287 45.4869" fill="#00549B"/>
<path d="M39.159 48.8975C39.5733 48.5038 40.0397 48.1688 40.5451 47.902H41.3851L39.4741 50.0777C39.3523 50.2289 39.2598 50.3213 39.2598 50.3843C39.2598 50.4473 39.2599 50.4137 39.3229 50.4137C39.7051 50.4137 41.2885 49.2797 42.6284 47.8936H43.4684L41.5741 50.0315C41.4355 50.1995 41.2801 50.3381 41.2801 50.3969C41.2801 50.4557 41.3095 50.4431 41.3557 50.4431C41.7757 50.4431 43.0358 49.4645 43.817 48.7295V49.0655C42.7712 49.9685 41.864 50.6573 41.2969 50.6573C41.0533 50.6573 40.9441 50.5355 40.9441 50.3381C41.001 49.9548 41.1722 49.5976 41.4355 49.3133C40.6375 50.0147 39.7765 50.6573 39.2389 50.6573C39.0372 50.6573 38.9154 50.5817 38.9154 50.3087C38.9154 49.7249 39.3355 49.2797 39.7933 48.6539L39.1296 49.2335V48.8975" fill="#00549B"/>
<path d="M43.6485 48.8975C44.0658 48.5213 44.5078 48.1733 44.9715 47.8558C44.9253 47.4736 45.0765 47.2132 45.4167 47.2132C45.4548 47.2088 45.4933 47.2128 45.5296 47.225C45.5659 47.2372 45.5991 47.2572 45.6268 47.2837C45.6545 47.3102 45.676 47.3424 45.6897 47.3782C45.7035 47.4139 45.7093 47.4522 45.7065 47.4904C45.7065 47.6416 45.6645 47.7634 45.4335 47.7634C45.3411 47.7634 45.2151 47.7634 45.1857 47.7046C45.1227 47.797 45.2781 47.9188 45.3999 47.9188C45.4436 47.9156 45.4864 47.9042 45.5259 47.8852C45.6 47.8661 45.6762 47.8563 45.7527 47.8558C45.9081 47.8558 45.9879 48.2087 45.9879 48.3767C45.9879 48.6833 44.3541 50.1533 44.3541 50.3969C44.3541 50.4305 44.3541 50.4431 44.4339 50.4431C44.7867 50.4431 45.8157 49.6619 46.8784 48.7295V49.0655C46.1097 49.7417 44.9421 50.6909 44.4003 50.6909C44.2197 50.6909 44.1273 50.6111 44.1273 50.3549C44.1273 49.6157 44.5473 49.0949 45.4923 48.1457C45.3497 48.1575 45.2062 48.1375 45.0723 48.0868C44.5618 48.424 44.0837 48.8079 43.6443 49.2335V48.8975" fill="#00549B"/>
<path d="M47.2313 49.2965C46.9632 49.5399 46.7671 49.8523 46.6643 50.1995C46.6643 50.3969 46.9247 50.4599 47.0465 50.4599C47.8865 50.4599 49.0919 49.4813 49.9194 48.7295V49.0655C49.0793 49.7711 48.1217 50.6741 47.0171 50.6741C46.5383 50.6741 46.324 50.4599 46.324 49.8635C46.324 48.3935 48.3695 47.8558 48.9239 47.8558C49.2768 47.8558 49.428 47.965 49.428 48.2758C49.428 48.7925 48.7139 49.2503 47.2313 49.2965ZM49.134 48.2254C49.1278 48.182 49.1061 48.1423 49.0729 48.1137C49.0397 48.0851 48.9972 48.0696 48.9533 48.07C48.3602 48.2141 47.8332 48.5546 47.4581 49.0361C48.5039 48.9899 49.1382 48.4691 49.1382 48.2254" fill="#00549B"/>
<path d="M62.4529 40.2829C59.202 40.1653 56.0057 42.1352 56.0057 44.0631C56.0057 45.0417 56.9087 45.9952 58.4754 45.9952C59.2323 45.9618 59.9825 45.8377 60.7098 45.6255C62.1631 43.2441 64.826 40.1191 66.8253 40.1191C67.2789 40.1191 67.4931 40.2577 67.4931 40.6274C67.4931 42.11 64.133 44.7267 61.6507 45.6255C61.1621 46.7063 60.4995 47.6995 59.6892 48.5657C57.9671 50.3255 56.1233 51.2202 54.0274 51.2202C52.6749 51.2202 51.5955 50.9471 51.5955 49.9601C51.5955 49.5905 51.7719 49.3553 52.1457 49.3553C52.3809 49.3553 52.5657 49.4351 52.5657 49.7249C52.5657 50.0147 52.4061 50.0777 52.1709 50.0777C52.0733 50.0688 51.9794 50.0356 51.8979 49.9811C51.9567 50.4011 52.4271 50.9387 53.9728 50.9387C56.6987 50.9387 58.425 49.3553 60.441 45.9994C59.8188 46.1892 59.1721 46.2868 58.5216 46.2892C56.4215 46.2892 55.6193 45.1803 55.6193 44.1429C55.6193 41.879 58.9794 39.9091 62.4403 40.0225L62.4529 40.2829ZM66.1197 42.383C66.7665 41.7404 67.2201 40.9592 67.2201 40.6652C67.2201 40.4341 67.0983 40.3753 66.8673 40.3753C66.002 40.3753 63.5534 41.585 61.8691 45.2181C63.4317 44.5123 64.8677 43.5545 66.1197 42.383Z" fill="#00549B"/>
<path d="M60.1176 48.8975C60.5327 48.5047 60.9989 48.1699 61.5037 47.902H62.3437L60.4242 50.0777C60.2982 50.2289 60.2058 50.3213 60.2058 50.3843C60.2058 50.4473 60.2058 50.4137 60.2688 50.4137C60.6552 50.4137 62.2387 49.2797 63.5744 47.8936H64.4144L62.5537 50.0231C62.4151 50.1911 62.2597 50.3297 62.2597 50.3885C62.2597 50.4473 62.2933 50.4347 62.3395 50.4347C62.7595 50.4347 63.9986 49.4561 64.7966 48.7211V49.0571C63.7508 49.9601 62.8435 50.6489 62.2765 50.6489C62.0287 50.6489 61.9195 50.5271 61.9195 50.3297C61.9763 49.9464 62.1476 49.5892 62.4109 49.3049C61.6129 50.0063 60.7518 50.6489 60.2142 50.6489C60.0126 50.6489 59.8908 50.5733 59.8908 50.3003C59.8908 49.7165 60.3108 49.2713 60.7686 48.6455L60.105 49.2251V48.8891" fill="#00549B"/>
<path d="M66.9467 46.6798C66.9467 46.4614 67.0391 46.327 67.2533 46.327C67.4675 46.327 67.5137 46.3732 67.5137 46.5706C67.519 46.6143 67.5151 46.6587 67.5022 46.7008C67.4893 46.7429 67.4677 46.7818 67.4388 46.8151C67.4099 46.8483 67.3743 46.8751 67.3344 46.8938C67.2945 46.9125 67.2511 46.9225 67.2071 46.9234C67.0391 46.9234 66.9467 46.8604 66.9467 46.6798ZM64.6072 48.8975C64.918 48.6371 65.485 48.1792 65.9303 47.8852H66.8375L64.9642 49.9853C64.792 50.1701 64.6702 50.3087 64.6702 50.3675C64.6702 50.4263 64.6996 50.4305 64.7752 50.4305C65.1448 50.4305 66.4553 49.3889 67.1903 48.7295V49.0655C66.0857 50.0147 65.2708 50.6573 64.7626 50.6573C64.5316 50.6573 64.4224 50.5649 64.4224 50.2751C64.4224 49.7417 64.8676 49.1285 65.3464 48.5951C65.0877 48.7887 64.8408 48.9976 64.6072 49.2209V48.8849" fill="#00549B"/>
<path d="M67.0019 48.8975C67.6487 48.3305 68.4005 47.7172 68.5727 47.5492C68.9088 47.2132 68.9256 46.9528 69.186 46.9528C69.2112 46.9533 69.236 46.9589 69.259 46.9692C69.282 46.9794 69.3027 46.9942 69.3199 47.0126C69.3371 47.031 69.3505 47.0526 69.3593 47.0763C69.368 47.0999 69.3719 47.125 69.3708 47.1502C69.3708 47.3518 69.2322 47.4442 69.0012 47.5702C69.2922 47.9253 69.4497 48.3711 69.4464 48.8303C69.4442 48.9707 69.4344 49.1109 69.417 49.2503C69.7935 49.2145 70.1415 49.0338 70.3872 48.7463V49.0823C70.254 49.2335 70.0864 49.3506 69.8986 49.4237C69.7108 49.4968 69.5082 49.5237 69.3078 49.5023C69.0012 50.2205 67.7873 50.7287 67.1573 50.7287C66.6197 50.7287 66.4181 50.4809 66.4181 50.2205C66.4128 50.1545 66.4222 50.0881 66.4454 50.0261C66.4685 49.964 66.505 49.9078 66.5523 49.8614C66.5995 49.8149 66.6563 49.7794 66.7188 49.7573C66.7812 49.7351 66.8477 49.727 66.9137 49.7333C66.9575 49.7273 67.0021 49.7308 67.0445 49.7434C67.0869 49.7561 67.1262 49.7776 67.1596 49.8067C67.193 49.8357 67.2198 49.8715 67.2382 49.9117C67.2567 49.952 67.2663 49.9957 67.2665 50.0399C67.2655 50.1228 67.2327 50.2022 67.1748 50.2616C67.117 50.321 67.0385 50.3559 66.9557 50.3591C66.8871 50.3601 66.8193 50.3442 66.7583 50.3129C66.7583 50.4053 66.9263 50.4809 67.1111 50.4809C67.8797 50.4809 68.9424 49.2209 68.9424 48.3557C68.9352 48.1549 68.8759 47.9594 68.7701 47.7886L67.0019 49.2713V48.9353" fill="#00549B"/>
<path d="M70.2406 48.8723C70.8874 48.3095 71.6435 47.6962 71.8115 47.5282C72.1517 47.188 72.1643 46.9318 72.4247 46.9318C72.4501 46.9317 72.4752 46.9369 72.4984 46.947C72.5217 46.957 72.5427 46.9718 72.56 46.9903C72.5774 47.0088 72.5907 47.0307 72.5992 47.0546C72.6077 47.0785 72.6112 47.1039 72.6095 47.1292C72.6095 47.3266 72.4709 47.419 72.2399 47.5492C72.5321 47.9036 72.6898 48.3499 72.6851 48.8093C72.6829 48.9497 72.6731 49.0899 72.6557 49.2293C73.0323 49.1936 73.3802 49.0128 73.6259 48.7253V49.0613C73.4931 49.2119 73.3263 49.3286 73.1392 49.4017C72.9522 49.4747 72.7504 49.502 72.5507 49.4813C72.2399 50.2037 71.026 50.7077 70.396 50.7077C69.8584 50.7077 69.6568 50.4599 69.6568 50.2037C69.6509 50.1374 69.6597 50.0705 69.6826 50.0079C69.7055 49.9454 69.7419 49.8886 69.7892 49.8417C69.8366 49.7948 69.8936 49.7589 69.9564 49.7365C70.0192 49.7141 70.0861 49.7059 70.1524 49.7123C70.1962 49.7063 70.2409 49.7098 70.2833 49.7224C70.3257 49.7351 70.3649 49.7566 70.3983 49.7857C70.4317 49.8147 70.4585 49.8505 70.4769 49.8907C70.4954 49.931 70.505 49.9747 70.5052 50.0189C70.5053 50.1014 70.4734 50.1808 70.4162 50.2403C70.359 50.2998 70.2811 50.3349 70.1986 50.3381C70.1287 50.3389 70.0596 50.3231 69.997 50.2919C69.997 50.3843 70.165 50.4599 70.3498 50.4599C71.1184 50.4599 72.1811 49.1999 72.1811 48.3347C72.174 48.1339 72.1146 47.9384 72.0089 47.7676L70.2406 49.2503V48.9143" fill="#00549B"/>
<path d="M73.9744 49.2713C73.7071 49.5154 73.5112 49.8275 73.4074 50.1743C73.4074 50.3759 73.6678 50.4347 73.7896 50.4347C74.6296 50.4347 75.8351 49.4561 76.6667 48.7043V49.0403C75.8267 49.7459 74.8649 50.6489 73.7602 50.6489C73.2856 50.6489 73.0672 50.4347 73.0672 49.8383C73.0672 48.3683 75.1127 47.8306 75.6671 47.8306C76.0199 47.8306 76.1753 47.9398 76.1753 48.2506C76.1753 48.7673 75.4487 49.2251 73.9744 49.2713ZM75.8981 48.2002C75.8903 48.1569 75.8675 48.1176 75.8337 48.0892C75.8 48.0608 75.7574 48.0451 75.7133 48.0448C75.1214 48.1892 74.5958 48.5297 74.2222 49.0109C75.2681 48.9647 75.9023 48.4439 75.9023 48.2002" fill="#00549B"/>
<path d="M85.5748 43.9917L86.4484 43.9287L81.1772 49.9307C81.068 50.0399 80.8538 50.2835 80.8538 50.3759C80.8538 50.4683 80.8538 50.4179 80.9 50.4179C81.2402 50.4179 82.6851 49.1579 83.2059 48.7043V49.0403C82.6053 49.5317 81.3914 50.6489 80.8706 50.6489C80.6858 50.6489 80.5766 50.5733 80.5766 50.3591C80.5948 50.1671 80.6313 49.9772 80.6858 49.7921C80.2238 50.2499 79.6694 50.6321 79.241 50.6321C78.8881 50.6321 78.6865 50.4935 78.6865 49.8215C78.6865 48.3221 80.8244 47.8306 81.3326 47.8306C81.7149 47.8306 81.7905 47.9986 81.7527 48.322L85.5748 43.9917ZM81.5468 48.2758C81.5425 48.2108 81.5128 48.1502 81.464 48.1069C81.4153 48.0637 81.3515 48.0414 81.2864 48.0448C80.5472 48.0448 78.9931 49.7627 78.9931 50.2499C78.9973 50.3042 79.0216 50.3549 79.0612 50.3922C79.1008 50.4295 79.153 50.4506 79.2074 50.4515C79.7324 50.4515 81.5468 48.8891 81.5468 48.2758Z" fill="#00549B"/>
<path d="M86.9359 45.3987C87.5281 44.8863 86.8141 44.0505 87.5029 43.9497C87.6204 43.9218 87.7441 43.9415 87.8472 44.0044C87.9502 44.0673 88.0242 44.1684 88.0531 44.2857C88.1917 45.0543 87.1585 45.6928 86.247 46.1086C86.247 46.1086 86.079 46.1464 86.9359 45.3987Z" fill="#00549B"/>
<path d="M93.9337 42.6812C93.194 43.4128 92.2092 43.8438 91.1699 43.8909C90.3047 43.8909 89.6411 43.4037 89.6411 42.6644C89.6411 41.5892 91.0523 40.1443 93.501 40.1443C94.4419 40.1443 95.2063 40.4971 95.2063 41.1818C95.2063 41.4716 95.1097 41.7068 95.1097 41.8622C95.1097 42.0176 95.1853 42.0596 95.4625 42.0596C96.5377 42.0596 97.5416 40.85 98.5412 40.1275L98.8142 40.4762C96.4789 41.8454 95.3827 43.6221 94.1941 45.5163L96.1723 45.0963C99.23 41.858 102.053 40.1779 103.233 40.1779C103.779 40.1779 104.014 40.4299 104.014 40.8038C103.941 41.3664 103.67 41.8846 103.25 42.2654C101.7 43.8111 99.1334 44.5881 97.193 45.1551C95.7817 46.8352 93.7026 49.5695 93.7026 50.4851C93.7021 50.5522 93.7159 50.6186 93.7432 50.6798C93.7704 50.7411 93.8104 50.7959 93.8605 50.8404C93.9106 50.885 93.9697 50.9183 94.0337 50.9381C94.0978 50.958 94.1653 50.9639 94.2319 50.9556C95.2903 50.9556 97.172 49.2167 98.3312 48.2422V48.6623C97.0376 49.8341 95.3491 51.2202 94.2739 51.2202C93.5472 51.2202 93.2742 50.8295 93.2742 50.1281C93.2742 48.7799 94.4671 46.9234 95.7943 45.4785C95.2273 45.6171 94.3831 45.7936 93.9714 45.8692C91.8336 49.2293 88.2088 51.1992 86.6968 51.1992C86.0121 51.1992 85.7181 50.8884 85.7181 50.3591C85.7181 49.8299 85.9323 49.4057 86.7178 48.6245C88.2844 47.062 90.4979 46.2808 92.9298 45.7726C93.8957 44.5254 94.9513 43.3504 96.0883 42.257C95.8431 42.3156 95.5927 42.3494 95.3407 42.3578C94.8115 42.3578 94.4419 42.1604 94.4419 41.6522C94.4419 41.3036 94.5973 41.2028 94.5973 40.9508C94.5973 40.577 93.9882 40.4215 93.4212 40.4215C91.3631 40.4215 89.8721 41.8664 89.8721 42.6896C89.8721 43.2357 90.4223 43.6431 91.1069 43.6431C92.0713 43.5767 92.9781 43.1599 93.6564 42.4712L93.9337 42.6812ZM103.224 40.3963C102.321 40.3963 99.6963 41.942 97.5794 44.6931C102.418 43.3449 103.791 41.5304 103.791 40.7702C103.791 40.5728 103.518 40.3963 103.224 40.3963ZM86.7766 50.922C87.6418 50.922 90.1367 49.9055 92.6568 46.117C87.7174 47.1334 85.9743 49.6535 85.9743 50.3171C85.9743 50.6867 86.2852 50.922 86.7556 50.922" fill="#00549B"/>
<path d="M100.659 49.0655C100.516 49.2055 100.344 49.3124 100.155 49.3784C99.9664 49.4445 99.7654 49.4681 99.5665 49.4477C98.9239 50.1533 98.1216 50.6573 97.4916 50.6573C97.398 50.6681 97.3031 50.6571 97.2144 50.6253C97.1257 50.5934 97.0456 50.5416 96.9801 50.4737C96.9147 50.4059 96.8659 50.3239 96.8373 50.2341C96.8087 50.1443 96.8012 50.0491 96.8154 49.9559C96.8154 48.6959 98.6467 47.8558 99.4615 47.8558C99.9067 47.8558 100.058 48.1036 100.058 48.3935C100.04 48.6975 99.9338 48.9897 99.7513 49.2335C100.101 49.1608 100.419 48.9784 100.659 48.7127V49.0655ZM99.8185 48.3472C99.8188 48.31 99.8111 48.2732 99.796 48.2392C99.7809 48.2052 99.7586 48.1748 99.7307 48.1501C99.7029 48.1255 99.6701 48.107 99.6345 48.0961C99.5989 48.0852 99.5614 48.082 99.5245 48.0868C98.7895 48.0868 97.2354 49.8005 97.2354 50.2457C97.2354 50.3969 97.3908 50.4431 97.5126 50.4431C97.9326 50.4431 98.5878 50.0021 99.1129 49.4813C99.4609 49.1864 99.7077 48.7898 99.8185 48.3472Z" fill="#00549B"/>
<path d="M100.473 48.8975C100.889 48.5213 101.329 48.1733 101.792 47.8558C101.746 47.4736 101.901 47.2132 102.237 47.2132C102.275 47.2089 102.314 47.2129 102.35 47.2251C102.387 47.2373 102.42 47.2572 102.448 47.2836C102.476 47.31 102.498 47.3422 102.512 47.3779C102.527 47.4136 102.533 47.452 102.531 47.4904C102.531 47.6416 102.485 47.7634 102.254 47.7634C102.161 47.7634 102.04 47.7634 102.01 47.7046C101.947 47.797 102.103 47.9188 102.224 47.9188C102.267 47.9155 102.308 47.9041 102.346 47.8852C102.422 47.8662 102.499 47.8563 102.577 47.8558C102.733 47.8558 102.808 48.2087 102.808 48.3767C102.808 48.6833 101.179 50.1533 101.179 50.3969C101.179 50.4305 101.179 50.4431 101.254 50.4431C101.607 50.4431 102.64 49.6619 103.699 48.7295V49.0655C102.93 49.7417 101.762 50.6909 101.225 50.6909C101.04 50.6909 100.948 50.6111 100.948 50.3549C100.948 49.6157 101.368 49.0949 102.317 48.1456C102.174 48.1581 102.03 48.138 101.897 48.0868C101.385 48.423 100.907 48.8069 100.469 49.2335V48.8975" fill="#00549B"/>
<path d="M103.514 48.8975C104.514 48.0574 105.614 47.1082 106.328 46.4026C106.727 46.0204 107.698 44.9157 108.542 43.9833H109.357L104.375 49.5275C104.115 49.8173 103.733 50.2289 103.733 50.3675C103.733 50.4137 103.762 50.4263 103.825 50.4263C104.191 50.4263 105.362 49.3721 106.097 48.7127V49.0487C104.728 50.2289 104.3 50.6405 103.808 50.6405C103.514 50.6405 103.422 50.5187 103.422 50.2205C103.422 49.6829 104.052 48.8723 104.825 48.0448L103.514 49.2083V48.8723" fill="#00549B"/>
<path d="M109.294 49.0655C109.151 49.2055 108.979 49.3124 108.79 49.3784C108.601 49.4445 108.401 49.4681 108.202 49.4477C107.555 50.1533 106.757 50.6573 106.127 50.6573C106.033 50.6681 105.938 50.6571 105.85 50.6253C105.761 50.5934 105.681 50.5416 105.615 50.4737C105.55 50.4059 105.501 50.3239 105.472 50.2341C105.444 50.1443 105.436 50.0491 105.45 49.9559C105.45 48.6959 107.278 47.8558 108.092 47.8558C108.538 47.8558 108.693 48.1036 108.693 48.3935C108.674 48.6971 108.567 48.9887 108.386 49.2335C108.737 49.1608 109.054 48.9784 109.294 48.7127V49.0655ZM108.454 48.3472C108.455 48.3102 108.447 48.2734 108.433 48.2394C108.418 48.2054 108.396 48.175 108.369 48.1503C108.341 48.1255 108.309 48.107 108.273 48.0961C108.238 48.0851 108.2 48.082 108.164 48.0868C107.425 48.0868 105.875 49.8005 105.875 50.2457C105.875 50.3969 106.026 50.4431 106.148 50.4431C106.568 50.4431 107.227 50.0021 107.748 49.4813C108.096 49.1864 108.343 48.7898 108.454 48.3472Z" fill="#00549B"/>
<path d="M113.011 47.839L110.365 50.8757C111.427 50.2808 112.414 49.5602 113.305 48.7295V49.0655C112.316 50.0001 111.181 50.7663 109.945 51.3336C109.575 51.7536 108.638 52.7406 108.361 53.0136C107.147 54.2359 106.53 54.6055 105.946 54.6055C105.873 54.6152 105.799 54.6079 105.729 54.5843C105.66 54.5607 105.597 54.5214 105.545 54.4694C105.493 54.4174 105.453 54.3542 105.43 54.2845C105.406 54.2149 105.399 54.1408 105.408 54.0679C105.446 53.7379 105.612 53.436 105.87 53.2278C106.656 52.4298 107.576 52.1106 109.193 51.4218L109.974 50.4095C109.757 50.5438 109.507 50.6177 109.252 50.6237C108.832 50.6237 108.714 50.3507 108.714 49.8719C108.714 48.5279 110.453 47.8348 111.343 47.8348C111.822 47.8348 111.835 48.0196 111.835 48.2548L112.137 47.8894L113.011 47.839ZM108.844 51.8082C108.273 52.0686 106.816 52.6188 106.059 53.3706C105.723 53.7067 105.614 53.9335 105.614 54.1057C105.616 54.1475 105.627 54.1885 105.645 54.226C105.664 54.2636 105.69 54.297 105.722 54.3242C105.754 54.3513 105.791 54.3717 105.831 54.3839C105.871 54.3962 105.913 54.4001 105.954 54.3955C106.278 54.3955 106.736 54.1351 107.32 53.5555C107.86 53.0022 108.369 52.4189 108.844 51.8082ZM109.243 50.3969C109.89 50.3969 111.579 48.7463 111.579 48.2717C111.579 48.2409 111.572 48.2104 111.56 48.1823C111.547 48.1542 111.529 48.1291 111.506 48.1088C111.483 48.0884 111.455 48.0733 111.426 48.0645C111.396 48.0556 111.365 48.0532 111.335 48.0574C110.579 48.0574 109.058 49.6787 109.058 50.2163C109.056 50.2666 109.073 50.3159 109.105 50.3549C109.124 50.3707 109.146 50.3825 109.17 50.3897C109.194 50.3969 109.218 50.3994 109.243 50.3969Z" fill="#00549B"/>
<path d="M113.636 49.2965C113.368 49.5399 113.172 49.8523 113.069 50.1995C113.069 50.3969 113.33 50.4599 113.452 50.4599C114.292 50.4599 115.497 49.4813 116.329 48.7295V49.0655C115.489 49.7711 114.527 50.6741 113.422 50.6741C112.943 50.6741 112.729 50.4599 112.729 49.8635C112.729 48.3934 114.775 47.8558 115.329 47.8558C115.682 47.8558 115.833 47.965 115.833 48.2758C115.833 48.7925 115.111 49.2503 113.636 49.2965ZM115.556 48.2254C115.55 48.182 115.528 48.1423 115.495 48.1137C115.462 48.0851 115.419 48.0696 115.375 48.07C114.782 48.2141 114.255 48.5546 113.88 49.0361C114.926 48.9899 115.56 48.4691 115.56 48.2254" fill="#00549B"/>
<path d="M116.144 48.8975C116.559 48.5213 117 48.1733 117.462 47.8558C117.42 47.4736 117.572 47.2132 117.908 47.2132C117.946 47.2081 117.985 47.2116 118.022 47.2235C118.059 47.2354 118.092 47.2553 118.121 47.2819C118.149 47.3084 118.171 47.3409 118.185 47.377C118.199 47.4131 118.204 47.4518 118.202 47.4904C118.202 47.6416 118.155 47.7634 117.924 47.7634C117.832 47.7634 117.71 47.7634 117.681 47.7046C117.618 47.797 117.773 47.9188 117.895 47.9188C117.937 47.9169 117.978 47.9069 118.017 47.8894C118.092 47.8707 118.17 47.8608 118.248 47.86C118.403 47.86 118.479 48.2128 118.479 48.3809C118.479 48.6875 116.849 50.1575 116.849 50.4011C116.849 50.4347 116.849 50.4473 116.925 50.4473C117.278 50.4473 118.311 49.6661 119.369 48.7337V49.0697C118.601 49.7459 117.433 50.6951 116.895 50.6951C116.711 50.6951 116.618 50.6153 116.618 50.3591C116.618 49.6199 117.038 49.0991 117.987 48.1498C117.845 48.1623 117.701 48.1422 117.567 48.091C117.057 48.4282 116.579 48.8121 116.139 49.2377V48.9017" fill="#00549B"/>
<path d="M121.525 46.6798C121.525 46.4614 121.617 46.327 121.831 46.327C122.045 46.327 122.092 46.3732 122.092 46.5706C122.097 46.6143 122.093 46.6587 122.08 46.7008C122.067 46.7429 122.046 46.7818 122.017 46.8151C121.988 46.8483 121.952 46.8751 121.912 46.8938C121.872 46.9125 121.829 46.9225 121.785 46.9234C121.617 46.9234 121.525 46.8604 121.525 46.6798ZM119.185 48.8975C119.496 48.6371 120.063 48.1792 120.508 47.8852H121.415L119.538 49.9853C119.37 50.1701 119.248 50.3087 119.248 50.3675C119.248 50.4263 119.278 50.4305 119.357 50.4305C119.727 50.4305 121.037 49.3889 121.768 48.7295V49.0655C120.664 50.0147 119.849 50.6573 119.341 50.6573C119.11 50.6573 119.005 50.5649 119.005 50.2751C119.005 49.7417 119.45 49.1285 119.924 48.5951C119.667 48.7897 119.42 48.9987 119.185 49.2209V48.8849" fill="#00549B"/>
<path d="M122.121 49.2965C121.85 49.5387 121.653 49.8514 121.55 50.1995C121.55 50.3969 121.81 50.4599 121.936 50.4599C122.776 50.4599 123.982 49.4813 124.809 48.7295V49.0655C123.969 49.7711 123.011 50.6741 121.907 50.6741C121.428 50.6741 121.214 50.4599 121.214 49.8635C121.214 48.3935 123.259 47.8558 123.809 47.8558C124.162 47.8558 124.318 47.965 124.318 48.2758C124.318 48.7925 123.595 49.2503 122.121 49.2965ZM124.04 48.2254C124.033 48.1817 124.011 48.1419 123.977 48.1134C123.943 48.0849 123.9 48.0695 123.856 48.07C123.264 48.2144 122.738 48.5549 122.364 49.0361C123.41 48.9899 124.045 48.4691 124.045 48.2254" fill="#00549B"/>
<path d="M133.721 44.0127L134.595 43.9539L129.324 49.9559C129.215 50.0609 129 50.3087 129 50.3969C129 50.4032 129 50.4095 129.002 50.4154C129.005 50.4213 129.008 50.4266 129.012 50.4311C129.017 50.4355 129.022 50.4389 129.028 50.441C129.034 50.4431 129.04 50.4438 129.046 50.4431C129.387 50.4431 130.827 49.1831 131.352 48.7295V49.0655C130.752 49.5569 129.538 50.6741 129.017 50.6741C128.832 50.6741 128.723 50.5985 128.723 50.3843C128.741 50.1922 128.777 50.0023 128.832 49.8173C128.37 50.2751 127.816 50.6573 127.387 50.6573C127.03 50.6573 126.833 50.5187 126.833 49.8467C126.833 48.3431 128.971 47.8558 129.475 47.8558C129.861 47.8558 129.937 48.0238 129.895 48.3431L133.721 44.0127ZM129.693 48.3095C129.692 48.2767 129.684 48.2446 129.669 48.2151C129.655 48.1855 129.635 48.1592 129.61 48.1376C129.585 48.116 129.557 48.0997 129.525 48.0895C129.494 48.0793 129.461 48.0756 129.429 48.0784C128.694 48.0784 127.14 49.7963 127.14 50.2835C127.144 50.3378 127.168 50.3885 127.208 50.4258C127.247 50.4631 127.299 50.4842 127.354 50.4851C127.879 50.4851 129.693 48.9227 129.693 48.3095Z" fill="#00549B"/>
<path d="M131.701 49.2965C131.433 49.5399 131.237 49.8523 131.134 50.1995C131.134 50.3969 131.394 50.4599 131.52 50.4599C132.361 50.4599 133.562 49.4813 134.393 48.7295V49.0655C133.553 49.7711 132.596 50.6741 131.487 50.6741C131.012 50.6741 130.798 50.4599 130.798 49.8635C130.798 48.3934 132.839 47.8558 133.394 47.8558C133.747 47.8558 133.902 47.965 133.902 48.2758C133.902 48.7925 133.18 49.2503 131.701 49.2965ZM133.625 48.2254C133.618 48.1817 133.595 48.1419 133.561 48.1134C133.527 48.0849 133.484 48.0695 133.44 48.07C132.848 48.2144 132.323 48.5549 131.949 49.0361C132.995 48.9899 133.629 48.4691 133.629 48.2254" fill="#00549B"/>
<path d="M138.867 49.0655C138.237 49.5863 137.069 50.6741 136.469 50.6741C136.179 50.6741 136.023 50.5649 136.023 50.2541C136.023 49.7501 136.469 49.3217 136.746 49.0277C137.023 48.7337 137.586 48.3557 137.586 48.154C137.586 48.112 137.552 48.0952 137.506 48.0952C137.137 48.0952 134.986 49.5779 134.293 50.3759L131.218 53.9755H130.345L135.923 47.713C135.465 48.133 134.91 48.6455 134.205 49.2419V48.9059C135.28 47.9846 136.294 47.0718 137.246 46.1674H137.846L135.356 49.1075C136.246 48.4481 137.061 47.8474 137.569 47.8474C137.817 47.8474 137.922 47.986 137.922 48.2675C137.91 48.4714 137.856 48.6707 137.764 48.8528C137.671 49.035 137.542 49.196 137.384 49.3259C137.015 49.6913 136.309 50.1071 136.309 50.3045C136.309 50.3801 136.338 50.4263 136.477 50.4263C136.876 50.4263 137.922 49.5527 138.875 48.7127V49.0487" fill="#00549B"/>
<path d="M138.681 48.8975C139.096 48.5047 139.562 48.1699 140.067 47.902H140.907L138.988 50.0777C138.862 50.2289 138.769 50.3213 138.769 50.3843C138.769 50.4473 138.769 50.4137 138.832 50.4137C139.214 50.4137 140.798 49.2797 142.138 47.8936H142.978L141.117 50.0315C140.979 50.1995 140.823 50.3381 140.823 50.3969C140.823 50.4557 140.853 50.4431 140.899 50.4431C141.319 50.4431 142.579 49.4645 143.36 48.7295V49.0655C142.314 49.9685 141.407 50.6573 140.84 50.6573C140.596 50.6573 140.487 50.5355 140.487 50.3381C140.546 49.9554 140.717 49.5988 140.979 49.3133C140.181 50.0147 139.319 50.6573 138.782 50.6573C138.58 50.6573 138.458 50.5817 138.458 50.3087C138.458 49.7249 138.857 49.2797 139.336 48.6539L138.673 49.2335V48.8975" fill="#00549B"/>
<path d="M145.507 46.6798C145.507 46.4614 145.6 46.327 145.818 46.327C146.036 46.327 146.078 46.3732 146.078 46.5706C146.084 46.6143 146.08 46.6587 146.067 46.7008C146.054 46.7429 146.032 46.7818 146.003 46.8151C145.975 46.8483 145.939 46.8751 145.899 46.8938C145.859 46.9125 145.816 46.9225 145.772 46.9234C145.6 46.9234 145.507 46.8604 145.507 46.6798ZM143.172 48.8975C143.59 48.5393 144.026 48.2028 144.478 47.8894H145.385L143.508 49.9895C143.34 50.1743 143.218 50.3129 143.218 50.3717C143.218 50.4305 143.248 50.4347 143.327 50.4347C143.693 50.4347 145.007 49.3931 145.738 48.7337V49.0697C144.634 50.0189 143.815 50.6615 143.311 50.6615C143.08 50.6615 142.97 50.5691 142.97 50.2793C142.97 49.7459 143.416 49.1327 143.894 48.5993C143.636 48.7929 143.389 49.0018 143.155 49.2251V48.8891" fill="#00549B"/>
<path d="M145.566 48.8975C146.213 48.3305 146.964 47.7172 147.137 47.5492C147.473 47.2132 147.489 46.9528 147.75 46.9528C147.775 46.9533 147.8 46.9589 147.823 46.9692C147.846 46.9794 147.867 46.9942 147.884 47.0126C147.901 47.031 147.914 47.0526 147.923 47.0763C147.932 47.0999 147.936 47.125 147.935 47.1502C147.935 47.3518 147.796 47.4442 147.565 47.5702C147.856 47.9253 148.014 48.3711 148.01 48.8303C148.008 48.9707 147.998 49.1109 147.981 49.2503C148.357 49.2133 148.705 49.0328 148.951 48.7463V49.0823C148.818 49.2335 148.65 49.3506 148.463 49.4237C148.275 49.4968 148.072 49.5237 147.872 49.5023C147.565 50.2205 146.351 50.7287 145.721 50.7287C145.184 50.7287 144.982 50.4809 144.982 50.2205C144.976 50.1547 144.985 50.0884 145.007 50.0263C145.03 49.9643 145.066 49.908 145.113 49.8614C145.16 49.8149 145.217 49.7793 145.279 49.7572C145.341 49.735 145.408 49.7269 145.473 49.7333C145.675 49.7333 145.83 49.8383 145.83 50.0399C145.829 50.1221 145.797 50.2009 145.74 50.2602C145.683 50.3195 145.606 50.3549 145.524 50.3591C145.454 50.3608 145.384 50.3449 145.322 50.3129C145.322 50.4053 145.49 50.4809 145.675 50.4809C146.444 50.4809 147.506 49.2209 147.506 48.3557C147.499 48.1549 147.44 47.9594 147.334 47.7886L145.566 49.2713V48.9353" fill="#00549B"/>
<path d="M151.395 48.4985C152.765 47.8852 155.222 46.7092 156.297 45.8524H156.62L152.038 50.964H151.072L155.272 46.8772C154.1 47.5198 152.92 48.1372 151.551 48.7127L151.412 48.4985" fill="#00549B"/>
<path d="M158.62 45.928C159.128 45.928 159.527 46.159 159.527 46.7092C159.527 47.4148 158.821 47.8726 157.574 48.1918C157.682 48.4218 157.74 48.6726 157.742 48.9269C157.742 50.1239 156.482 51.0858 155.255 51.0858C154.684 51.0858 154.176 50.9052 154.176 50.2457C154.176 49.0823 155.759 48.4859 156.851 48.1456C156.789 47.9367 156.752 47.7209 156.742 47.503C156.748 47.2989 156.796 47.0983 156.883 46.9138C156.971 46.7294 157.096 46.5653 157.25 46.432C157.625 46.0938 158.115 45.9132 158.62 45.928ZM157.25 49.3133C157.23 48.9824 157.131 48.6612 156.961 48.3767C155.591 48.7295 154.516 49.4351 154.516 50.2289C154.523 50.3217 154.548 50.4121 154.591 50.4947C154.634 50.5773 154.693 50.6502 154.765 50.7092C154.837 50.7682 154.92 50.8118 155.009 50.8376C155.099 50.8633 155.192 50.8706 155.285 50.859C156.02 50.859 157.25 50.2457 157.25 49.3133ZM159.25 46.6924C159.235 46.5322 159.157 46.3844 159.033 46.2813C158.91 46.1782 158.751 46.1282 158.59 46.1422C157.914 46.1422 157.204 46.7554 157.204 47.1964C157.247 47.4704 157.347 47.7322 157.498 47.965C158.573 47.7046 159.25 47.1838 159.25 46.705" fill="#00549B"/>
<path d="M162.589 45.928C163.093 45.928 163.492 46.159 163.492 46.7092C163.492 47.4148 162.786 47.8726 161.543 48.1918C161.649 48.4225 161.707 48.6728 161.711 48.9269C161.711 50.1239 160.451 51.0858 159.22 51.0858C158.653 51.0858 158.145 50.9051 158.145 50.2457C158.145 49.0823 159.728 48.4859 160.82 48.1456C160.756 47.9372 160.719 47.7211 160.711 47.503C160.716 47.2989 160.765 47.0983 160.852 46.9138C160.94 46.7294 161.065 46.5653 161.219 46.432C161.593 46.0922 162.084 45.9114 162.589 45.928ZM161.219 49.3133C161.197 48.9822 161.096 48.6613 160.925 48.3767C159.56 48.7295 158.481 49.4351 158.481 50.2289C158.487 50.3217 158.513 50.4121 158.556 50.4947C158.599 50.5773 158.658 50.6502 158.73 50.7092C158.802 50.7682 158.885 50.8118 158.974 50.8376C159.063 50.8633 159.157 50.8706 159.249 50.859C159.989 50.859 161.219 50.2457 161.219 49.3133ZM163.219 46.6924C163.203 46.5318 163.124 46.384 163 46.281C162.875 46.178 162.716 46.1281 162.555 46.1422C161.879 46.1422 161.173 46.7554 161.173 47.1964C161.216 47.4696 161.315 47.7312 161.463 47.965C162.538 47.7046 163.219 47.1838 163.219 46.705" fill="#00549B"/>
<path d="M165.249 45.5289C165.296 45.488 165.355 45.4617 165.417 45.4533C165.434 45.4516 165.452 45.4534 165.468 45.4587C165.485 45.464 165.5 45.4726 165.513 45.4841C165.526 45.4955 165.536 45.5095 165.544 45.5251C165.551 45.5408 165.555 45.5578 165.556 45.5751C165.556 45.6381 165.526 45.697 165.434 45.7726L164.925 46.2934C165.112 46.2524 165.302 46.2327 165.493 46.2346C166.127 46.2346 166.538 46.4782 166.925 46.4782C167.215 46.4782 167.462 46.2178 167.693 45.9868C167.746 45.9337 167.816 45.9022 167.891 45.8986C167.954 45.8986 168 45.928 168 45.9868C167.996 46.0219 167.984 46.0557 167.965 46.0856C167.947 46.1154 167.921 46.1405 167.891 46.159C165.666 48.1715 163.609 50.3629 161.742 52.7112H160.608L166.74 46.8772C166.566 46.9052 166.391 46.9207 166.215 46.9234C165.941 46.926 165.67 46.8731 165.417 46.768C165.248 46.6851 165.066 46.6338 164.879 46.6168C164.694 46.6168 164.459 46.726 164.039 47.1838H163.682L165.236 45.5289" fill="#00549B"/>
<path d="M131.491 6.48424C132.932 9.08414 132.331 12.6879 130.693 14.9518C129.367 16.7262 127.414 17.9279 125.233 18.3119L118.513 19.0091L118.991 3.71214C118.991 3.71214 123.691 3.09471 125.292 3.08631C127.064 3.10731 128.501 3.46013 129.542 4.31696C130.334 4.89771 130.997 5.6355 131.491 6.48424ZM127.711 5.99282C126.938 5.4678 125.997 5.3124 124.128 5.4678L121.314 5.77022L120.957 16.3882L124.926 16.0102C126.435 15.6646 127.774 14.7974 128.706 13.5615C129.857 11.9613 130.466 9.41596 129.332 7.56789C128.93 6.90902 128.364 6.36509 127.69 5.98862" fill="#00549B"/>
<path d="M13.012 5.74082L12.9237 8.13491L3.40198 9.13875L3.15837 16.51L12.6801 15.6112L12.5919 17.9717L3.08277 18.8663L2.74256 29.6103L12.2559 28.5687L12.1719 30.9586L0.281261 32.2186L1.12129 7.01767L12.9951 5.75762" fill="#00549B"/>
<path d="M78.6991 8.40792L78.2119 23.5285L75.843 23.8351L76.0656 17.0813L68.5432 17.8751L68.3247 24.7297L65.981 24.9692L66.4641 9.75197L68.8204 9.50416L68.6229 15.4852L76.1202 14.6452L76.326 8.62633L78.6991 8.38272" fill="#00549B"/>
<path d="M91.804 6.83286L97.7304 21.4284L95.4791 21.672L93.7991 17.6987L85.8398 18.8159L84.4705 22.8397L81.9504 23.2597L87.3686 7.32428L91.804 6.83286ZM88.8345 9.19755L86.663 16.2664L92.938 15.3298L90.2499 9.02955L88.8345 9.20175" fill="#00549B"/>
<path d="M162.484 12.3645C163.925 15.2332 163.622 19.3283 161.598 21.8484C160.665 23.073 159.425 24.029 158.004 24.6192C156.582 25.2093 155.03 25.4127 153.504 25.2086C150.791 24.8768 148.006 22.9783 146.88 20.3826C145.364 17.3123 145.982 13.1583 148.279 10.6214C149.419 9.34245 150.906 8.42307 152.56 7.97555C154.214 7.52802 155.962 7.57172 157.591 8.10131C159.711 8.83791 161.464 10.3654 162.484 12.3645ZM157.574 10.6046C155.377 9.53356 152.341 9.86957 150.56 11.5832C149.587 12.4345 148.885 13.5522 148.541 14.7981C148.197 16.044 148.226 17.3635 148.624 18.5933C148.98 19.7402 149.653 20.7632 150.565 21.5443C151.478 22.3254 152.592 22.833 153.78 23.0086C154.968 23.1841 156.182 23.0206 157.281 22.5366C158.38 22.0527 159.32 21.2682 159.993 20.2734C161.346 18.4001 161.64 15.46 160.472 13.4145C159.816 12.2046 158.805 11.2252 157.574 10.6088" fill="#00549B"/>
<path d="M44.9333 12.1503L44.8661 14.473L36.533 15.355L36.4154 19.2023L43.1986 18.5681L43.1356 20.7858L36.3356 21.5628L36.1844 25.9856L44.5133 25.0826L44.4335 27.4094L33.7357 28.5309L34.2229 13.3011L44.9333 12.1503Z" fill="#00549B"/>
<path d="M0.177713 35.5998L131.962 20.8362L131.903 22.7683L0.118911 37.5234L0.177713 35.5998Z" fill="#00549B"/>
<path d="M27.7849 16.6738C28.4863 17.9339 28.3435 19.803 27.6673 21.0546C30.1874 22.5079 30.0152 25.2548 29.3768 26.7248C29.0538 27.4832 28.5352 28.1423 27.874 28.6345C27.2127 29.1267 26.4326 29.4345 25.6134 29.5263L16.4655 30.5008L16.9653 15.0988L23.4293 14.3301C24.3064 14.2413 25.1899 14.417 25.9662 14.8347C26.7425 15.2524 27.3759 15.8929 27.7849 16.6738ZM23.715 16.6276L19.2628 17.1695L19.1452 21.0084L24.1476 20.5002C26.7139 20.286 26.4787 16.4554 23.715 16.6276ZM24.282 22.7977L19.0612 23.3731L18.9184 27.8463L25.6386 27.0566C27.0625 26.6114 27.4153 25.7672 27.3397 24.7171C27.2641 23.6671 26.6719 22.5121 24.2778 22.7977" fill="#00549B"/>
<path d="M164.463 3.13672C164.523 3.17868 164.567 3.23922 164.589 3.30893C164.595 3.37007 164.579 3.43145 164.543 3.48113L163.35 5.04779C163.314 5.1114 163.255 5.15931 163.186 5.1822C163.105 5.17478 163.029 5.14249 162.968 5.0898C159.335 2.43529 154.357 1.77167 150.367 3.32153C148.502 3.99229 146.798 5.04633 145.365 6.41575C143.932 7.78516 142.801 9.43958 142.047 11.2724C140.472 14.8972 140.711 19.9122 142.66 23.3353C142.687 23.3747 142.723 23.4077 142.764 23.4323C142.806 23.457 142.852 23.4726 142.899 23.4781L145.302 23.4445V25.2842L144.231 25.322C144.231 25.322 144.151 25.4018 144.172 25.4396C144.689 26.2796 145.55 26.9726 146.301 27.6153C149.943 30.5806 155.924 31.4416 160.229 29.2701C162.409 28.3335 164.337 26.5862 165.899 24.7003C165.933 24.6542 165.98 24.6191 166.034 24.5995C166.089 24.5853 166.147 24.5853 166.202 24.5995L167.768 25.6076C167.821 25.6373 167.865 25.6809 167.894 25.7336C167.906 25.7602 167.911 25.7888 167.911 25.8176C167.911 25.8464 167.906 25.875 167.894 25.9016C164.219 31.1182 158.423 33.5039 152.228 32.6891C147.969 32.08 143.903 29.4423 141.249 25.8218C141.239 25.8116 141.227 25.8035 141.214 25.798C141.201 25.7925 141.187 25.7897 141.173 25.7897C141.159 25.7897 141.145 25.7925 141.132 25.798C141.119 25.8035 141.107 25.8116 141.097 25.8218C140.257 26.7668 133.924 34.0709 133.05 35.0621C133.013 35.1303 133.004 35.2101 133.025 35.2848L134.453 37.305C134.453 37.305 134.545 37.4436 134.423 37.4688C134.302 37.494 132.571 37.4688 132.445 37.4688C132.405 37.4633 132.366 37.4496 132.332 37.4287C132.297 37.4077 132.267 37.38 132.243 37.347L131.571 36.4272C131.571 36.4272 131.441 36.381 131.403 36.3978C129.9 37.2 127.623 37.2924 126.174 36.3264C125.434 35.8536 124.824 35.204 124.398 34.4363C123.972 33.6685 123.744 32.8068 123.734 31.9288C123.734 30.568 124.482 29.1105 125.46 28.0269C125.561 27.9177 125.46 27.7539 125.46 27.7539L123.591 25.0826C123.591 25.0826 123.537 24.9566 123.658 24.9314C123.78 24.9062 131.513 24.0325 131.513 24.0325L131.844 23.9989L131.802 25.5866L126.674 26.225C126.674 26.225 126.514 26.2796 126.636 26.4224C126.758 26.5652 131.038 32.4916 131.807 33.5627C131.886 33.6719 132.042 33.5963 132.042 33.5963L140.182 24.1417C140.198 24.0416 140.198 23.9395 140.182 23.8393C138.057 19.4795 138.015 13.3389 140.409 9.04635C143.475 3.06532 150.035 -0.740029 156.882 0.125204C159.624 0.467205 162.233 1.50379 164.463 3.13672ZM126.535 29.4969C125.956 30.0831 125.593 30.8488 125.506 31.6684C125.451 32.2154 125.532 32.7677 125.742 33.2757C125.953 33.7838 126.286 34.2316 126.712 34.5791C127.153 34.9183 127.665 35.1528 128.21 35.2648C128.755 35.3769 129.319 35.3636 129.858 35.2259C130.065 35.1606 130.262 35.0689 130.446 34.9529C130.517 34.9193 130.53 34.8437 130.446 34.7513L126.666 29.4969C126.632 29.4465 126.548 29.4675 126.519 29.4969" fill="#00549B"/>
<path d="M61.3149 13.4145C61.635 14.157 61.7572 14.9699 61.6696 15.7737C61.582 16.5775 61.2876 17.3449 60.815 18.0011C60.1251 18.8328 59.2221 19.4614 58.2025 19.8198L62.3313 25.406L59.639 25.7294L55.611 20.2314C55.611 20.2314 55.4094 20.0214 55.2498 20.0466C55.0902 20.0718 51.0119 20.4666 51.0119 20.4666L50.8145 26.7668L48.4372 27.0566L48.937 11.6252L56.8795 10.7852C57.8 10.7104 58.7211 10.9231 59.5156 11.3941C60.31 11.865 60.9387 12.571 61.3149 13.4145ZM57.0139 13.0281L51.2345 13.7001L51.1085 18.1145L57.3541 17.5097C57.9409 17.4396 58.4787 17.1481 58.8578 16.6948C59.1149 16.3504 59.277 15.9445 59.3279 15.5176C59.3788 15.0908 59.3166 14.6582 59.1476 14.2629C58.9485 13.8815 58.6458 13.5641 58.2743 13.3471C57.9027 13.1301 57.4775 13.0225 57.0475 13.0365" fill="#00549B"/>
<path d="M113.985 7.37888C114.306 8.12123 114.429 8.9342 114.341 9.73819C114.253 10.5422 113.958 11.3096 113.485 11.9655C112.797 12.7978 111.895 13.4278 110.877 13.7883L115.01 19.3703L112.317 19.6938L108.29 14.1957C108.29 14.1957 108.088 13.9857 107.924 14.0151C107.76 14.0445 103.69 14.4351 103.69 14.4351L103.489 20.7354L101.111 21.0252L101.615 5.59381L109.554 4.75378C110.473 4.67824 111.394 4.89027 112.187 5.36054C112.981 5.83082 113.609 6.5361 113.985 7.37888ZM109.697 7.00086L103.9 7.66869L103.779 12.0831L110.037 11.474C110.623 11.4054 111.16 11.1136 111.536 10.6592C111.793 10.3156 111.956 9.91035 112.006 9.48419C112.057 9.05803 111.995 8.62599 111.826 8.23151C111.628 7.84866 111.326 7.52978 110.954 7.31194C110.583 7.09409 110.157 6.98622 109.726 7.00086" fill="#00549B"/>
</g>
<defs>
<clipPath id="clip0_950_179">
<rect width="168" height="55" fill="white" transform="translate(0 0.00146484)"/>
</clipPath>
</defs>
</svg>
