<svg width="168" height="90" viewBox="0 0 168 90" fill="none" xmlns="http://www.w3.org/2000/svg">
<g clip-path="url(#clip0_950_76)">
<path d="M18.8318 61.8597V71.8862H5.27072V61.8519H0V88.7946H5.27072V77.3988H18.8318V88.7946H24.0752V61.8753L18.8318 61.8597Z" fill="#211E1E"/>
<path d="M51.3109 61.8597V75.9046C51.3109 79.9893 50.8857 84.3237 44.191 84.3237C37.4963 84.3237 37.0164 80.0829 37.0164 75.9046V61.8597H31.7691V76.2518C31.7691 82.6734 33.5637 89.5359 44.191 89.5359C54.8182 89.5359 56.6051 82.5759 56.6051 76.2518V61.8597H51.3109Z" fill="#211E1E"/>
<path d="M95.1694 61.8597V88.779H113.346V83.3171H100.44V61.8597H95.1694Z" fill="#211E1E"/>
<path d="M129.415 61.0873C121.324 61.0873 114.98 67.3294 114.98 75.2452C114.98 83.1611 121.332 89.4071 129.415 89.4071C137.499 89.4071 143.85 83.1923 143.85 75.257C143.85 67.3216 137.507 61.099 129.415 61.099M129.415 84.2183C124.289 84.2183 120.271 80.2819 120.271 75.2452C120.271 70.2086 124.289 66.2722 129.415 66.2722C134.542 66.2722 138.556 70.2125 138.556 75.2452C138.556 80.278 134.542 84.2183 129.415 84.2183Z" fill="#211E1E"/>
<path d="M145.996 61.8597V67.3216H154.462V88.779H159.745V67.3216H168V61.8597H145.996Z" fill="#211E1E"/>
<path d="M84.1832 74.6679C85.0006 74.0353 85.658 73.2196 86.1025 72.2865C86.547 71.3534 86.7662 70.329 86.7425 69.2957C86.7425 67.0602 85.8374 61.8597 77.469 61.8597H63.627V88.779H78.3468C84.2729 88.779 87.6749 85.7867 87.6749 80.5862C87.6749 78.0503 86.4655 76.0177 84.1832 74.6561M77.2076 66.7793C80.1453 66.7793 81.0504 67.8444 81.0504 69.6156C81.0504 71.3868 80.2701 72.6548 77.3168 72.6548H68.8665V66.7793H77.2076ZM78.0269 83.875H68.8704V77.1101H78.0581C80.789 77.1101 81.9594 78.1713 81.9594 80.5901C81.9594 82.3964 81.2182 83.875 78.0308 83.875" fill="#211E1E"/>
<path d="M107.33 0H102.305C102.305 9.12525 99.9914 13.2646 95.2084 16.1282V0H87.4681V19.5067C86.0246 20.01 84.4719 20.5328 82.8099 21.1063C81.8775 21.4223 80.9724 21.7422 80.0985 22.0543V0H72.3543V25.2846C64.5516 29.2523 60.2874 34.7454 60.2874 47.1322H65.3163C65.3163 38.6662 67.3879 34.4723 72.3387 31.3473V47.1361H80.0828V27.7893C81.3976 27.3016 82.7943 26.8061 84.3119 26.2873L87.433 25.2066V47.1439H95.1928V22.1518C102.562 18.586 107.314 13.249 107.314 0" fill="#211E1E"/>
</g>
<defs>
<clipPath id="clip0_950_76">
<rect width="168" height="90" fill="white"/>
</clipPath>
</defs>
</svg>
