<svg width="168" height="65" viewBox="0 0 168 65" fill="none" xmlns="http://www.w3.org/2000/svg">
<path d="M119.035 37.2397C107.846 37.2397 101.401 29.3442 101.401 18.4101C101.401 11.8114 105.367 0 119.187 0C125.43 0 127.07 2.4284 129.244 2.4284C130.07 2.4284 130.63 2.00883 130.795 0.470422H131.723L132.13 11.4554H131.049C129.663 5.16194 125.061 2.0724 119.658 2.0724C116.822 2.0724 114.191 3.05139 112.131 5.16194C109.499 7.84462 107.847 12.2818 107.847 18.4101C107.847 27.9456 112.08 34.7604 120.23 34.7604C125.697 34.7604 129.104 32.599 131.774 28.3652L132.702 28.8865C129.968 34.201 125.43 37.2397 119.035 37.2397ZM97.6373 5.5815L86.1313 36.7311H85.2032L77.0537 13.3117L67.3022 36.7311H66.3741L55.186 4.34823C54.5122 2.44111 53.6858 1.46213 51.0667 1.30956V0.36871H64.4671V1.29684C61.8353 1.44941 61.1106 2.32669 61.1106 3.5091C61.1106 4.13209 61.4666 5.26365 61.8353 6.24264L68.8533 26.6107L75.8205 9.65002L73.8625 3.87781C73.2396 2.12326 72.2606 1.44941 69.9467 1.29684V0.36871H83.3089V1.29684C80.2194 1.3477 79.8507 2.37754 79.8507 3.20396C79.8507 3.7761 80.0542 4.65337 80.4229 5.63236L87.4409 25.8987L94.0775 7.79376C94.9547 5.41622 95.209 3.97952 95.209 3.40739C95.209 2.00883 94.1283 1.44941 91.5474 1.29684V0.36871H103.053V1.29684C100.32 1.44941 98.8706 2.27583 97.6373 5.5815ZM35.3906 36.4768V35.5487C38.1749 35.3961 39.459 34.7731 39.459 32.4592V4.39909C39.459 2.0724 38.1749 1.41127 35.6449 1.30956V0.36871H48.6384V1.29684C46.1592 1.39855 44.8751 2.0724 44.8751 4.38637V32.4464C44.8751 34.7604 46.1592 35.3834 48.9562 35.536V36.4641H35.3906V36.4768Z" fill="black"/>
<path d="M4.55154 63.9248C6.84002 63.9248 8.45467 62.7043 8.45467 60.67V60.6446C8.45467 58.8392 7.27229 58.0127 4.95838 57.4406C2.84789 56.9448 2.35205 56.5633 2.35205 55.7242V55.6988C2.35205 54.9868 3.01317 54.4019 4.13198 54.4019C5.13637 54.4019 6.11533 54.7961 7.09429 55.5335L8.12411 54.0841C7.01801 53.1941 5.74663 52.711 4.15741 52.711C1.98335 52.711 0.432269 54.0078 0.432269 55.8768V55.9022C0.432269 57.911 1.74179 58.5976 4.06841 59.157C6.10262 59.6274 6.53489 60.047 6.53489 60.8226V60.8607C6.53489 61.6744 5.78477 62.2338 4.60239 62.2338C3.25473 62.2338 2.19949 61.7126 1.15695 60.8099L0 62.183C1.30952 63.3527 2.88603 63.9248 4.55154 63.9248ZM18.6003 63.963C20.6472 63.963 21.8931 63.2128 23.0374 62.0304L21.8041 60.7844C20.8633 61.6617 20.0115 62.183 18.6638 62.183C16.5788 62.183 15.0658 60.4539 15.0658 58.3179V58.2797C15.0658 56.1438 16.5915 54.4274 18.6638 54.4274C19.9098 54.4274 20.8506 54.9741 21.7279 55.7878L22.9611 54.3638C21.9186 53.3721 20.698 52.6601 18.6893 52.6601C15.3837 52.6601 13.0571 55.2029 13.0571 58.3052V58.3306C13.0443 61.471 15.4218 63.963 18.6003 63.963ZM28.2882 63.7722H30.208V59.1697H35.4206V63.7722H37.3404V52.8508H35.4206V57.3898H30.208V52.8508H28.2882V63.7722ZM42.4768 63.7722H44.4474L45.5662 61.1404H50.728L51.8341 63.7722H53.8683L49.0625 52.7745H47.2826L42.4768 63.7722ZM46.2655 59.4367L48.1344 55.0631L50.016 59.4367H46.2655ZM58.903 63.7722H60.8228V59.3223H66.3278V57.5678H60.8228V54.5926H67.0271V52.8508H58.903V63.7722ZM72.5703 63.7722H74.4901V59.3223H79.9952V57.5678H74.4901V54.5926H80.7071V52.8508H72.583V63.7722H72.5703ZM85.9961 63.7722H87.9158V59.1697H93.1285V63.7722H95.0483V52.8508H93.1285V57.3898H87.9158V52.8508H85.9961V63.7722ZM100.604 63.7722H102.575L103.694 61.1404H108.855L109.962 63.7722H111.996L107.19 52.7745H105.41L100.604 63.7722ZM104.393 59.4367L106.262 55.0631L108.143 59.4367H104.393ZM120.679 63.9375C123.527 63.9375 125.371 62.2974 125.371 59.0426V52.8508H123.451V59.1443C123.451 61.1531 122.408 62.1703 120.705 62.1703C118.988 62.1703 117.946 61.0896 117.946 59.068V52.8508H116.026V59.1443C116.026 62.2974 117.844 63.9375 120.679 63.9375ZM134.957 63.9248C137.245 63.9248 138.86 62.7043 138.86 60.67V60.6446C138.86 58.8392 137.678 58.0127 135.364 57.4406C133.253 56.9448 132.757 56.5633 132.757 55.7242V55.6988C132.757 54.9868 133.406 54.4019 134.537 54.4019C135.542 54.4019 136.521 54.7961 137.5 55.5335L138.529 54.0841C137.423 53.1941 136.165 52.711 134.563 52.711C132.389 52.711 130.838 54.0078 130.838 55.8768V55.9022C130.838 57.911 132.147 58.5976 134.474 59.157C136.508 59.6274 136.94 60.047 136.94 60.8226V60.8607C136.94 61.6744 136.19 62.2338 135.008 62.2338C133.673 62.2338 132.605 61.7126 131.562 60.8099L130.405 62.183C131.715 63.3527 133.291 63.9248 134.957 63.9248ZM144.365 63.7722H152.54V62.0558H146.285V59.1189H151.764V57.4025H146.285V54.5672H152.464V52.8508H144.365V63.7722ZM158.477 63.7722H160.372V56.0039L166.398 63.7722H168V52.8508H166.118V60.403L160.27 52.8508H158.49V63.7722H158.477Z" fill="black"/>
</svg>
