<svg width="168" height="80" viewBox="0 0 168 80" fill="none" xmlns="http://www.w3.org/2000/svg">
<g clip-path="url(#clip0_678_149)">
<path fill-rule="evenodd" clip-rule="evenodd" d="M164.37 66.9706C164.37 66.9706 162.72 67.8606 160.06 71.0206H158.46C158.46 71.0206 158.04 71.1406 158.04 70.6006V66.5306C158.04 66.5306 157.97 66.1506 158.39 66.1506H159.59C159.59 66.1506 159.92 66.1006 160.18 66.6406L160.35 66.9906C160.35 66.9906 160.44 67.3906 160.94 67.2706C160.94 67.2706 161.41 67.3406 161.27 66.8006C161.13 66.2606 161.25 66.7306 161.25 66.7306L160.57 64.6406C160.57 64.6406 160.52 64.3606 160.17 64.3606L159.84 64.3406C159.84 64.3406 159.49 64.3206 159.56 64.7406C159.56 64.7406 159.65 65.1906 159.16 65.1906H158.46C158.46 65.1906 158.08 65.2806 158.08 64.6006V63.4006C158.08 63.4006 158.01 63.0506 158.53 63.0506H160.98C160.98 63.0506 161.55 62.8606 161.9 63.6606L162.09 64.0606C162.09 64.0606 162.09 64.4606 162.66 64.3406C162.66 64.3406 163.27 64.4106 163.08 63.8506L162.63 62.4906C162.63 62.4906 162.61 62.1806 162.21 62.1806H155.22C155.22 62.1806 154.82 62.0906 154.82 62.5306V62.7706C154.82 62.7706 154.75 62.9806 155.22 63.1006C155.22 63.1006 155.74 63.1206 155.74 63.8106L155.69 70.4706C155.69 70.4706 155.69 71.0806 155.29 71.2006C155.29 71.2006 154.84 71.0606 154.82 71.5806C154.82 71.5806 154.63 72.0006 155.27 72.0306H158.63C158.63 72.0306 159.22 72.0106 158.91 72.4106C158.91 72.4106 157.73 74.3606 155.43 75.7306C155.43 75.7306 153.95 76.6706 151.34 76.6906H15.6804C15.6804 76.6906 12.8104 76.9706 11.3004 75.4706L9.02037 72.9506C9.02037 72.9506 8.83037 72.6406 9.16037 72.5506C9.16037 72.5506 11.9604 72.0106 12.9504 70.1306C13.9404 68.2506 14.0604 66.8806 14.0604 65.5206V59.2206C14.0604 59.2206 13.9704 58.7706 14.5304 58.7506H15.0904C15.0904 58.7506 15.3704 58.8706 15.3704 58.3006V58.0406C15.3704 58.0406 15.5604 57.6606 15.0204 57.6606H10.1504C10.1504 57.6606 9.80037 57.5406 9.77037 57.9906V58.3006C9.77037 58.3006 9.63037 58.7206 10.1904 58.7206H10.5904C10.5904 58.7206 11.2304 58.6306 11.2004 59.4306V67.0406C11.2004 67.0406 11.5104 71.0106 7.95037 71.5306C7.95037 71.5306 5.62037 68.1206 4.16037 67.3006C4.16037 67.3006 2.11037 65.7506 0.510366 67.1806C0.510366 67.1806 -1.06963 68.9706 1.33037 71.0406C1.33037 71.0406 3.75037 72.9706 7.63037 72.8506C7.63037 72.8506 9.70037 75.9806 10.1504 76.5006C10.1504 76.5006 11.6804 78.3406 12.9504 78.8506C14.2204 79.3706 14.4304 79.7006 18.8304 79.7006H148.63C148.63 79.7006 151.97 79.9106 153.87 78.7806C153.87 78.7806 155.42 78.0506 157.12 76.1206L160.53 72.0306C160.53 72.0306 164.03 72.1206 165.92 70.9006C165.92 70.9006 167.85 69.9106 167.99 68.3406C168.13 66.7706 166.6 65.9206 164.34 67.0006L164.37 66.9706ZM3.97037 71.2306C2.46037 70.5506 2.89037 69.5406 2.89037 69.5406C3.22037 68.8106 4.23037 69.3106 4.23037 69.3106C5.48037 69.8506 6.79037 71.8306 6.79037 71.8306C5.07037 72.0406 3.97037 71.2406 3.97037 71.2406V71.2306ZM164.35 70.4506C163.34 71.1306 161.2 71.0406 161.2 71.0406C161.55 70.4306 162.89 69.1606 162.89 69.1606C163.97 68.2206 164.7 68.6706 164.7 68.6706C165.73 69.6106 164.35 70.4606 164.35 70.4606V70.4506ZM25.1404 71.4406C25.1404 71.4406 25.1604 71.1806 24.7604 71.0906C24.7604 71.0906 24.3104 71.0706 24.0504 70.4106L21.3404 62.4606C21.3404 62.4606 21.3604 62.0806 20.9304 62.0806H18.7904C18.7904 62.0806 18.4904 62.0806 18.3104 62.5306L15.3004 70.5506C15.3004 70.5506 15.3204 71.0906 14.3404 71.0706C14.3404 71.0706 13.9404 71.0906 14.0104 71.4906V71.7706C14.0104 71.7706 13.9604 72.0806 14.4304 72.0806H17.0204C17.0204 72.0806 17.3504 72.1006 17.3804 71.8206V71.5406C17.3804 71.5406 17.4704 71.1906 17.0704 71.1206C17.0704 71.1206 16.3604 71.0306 16.6004 70.3906L16.9804 69.5206H21.2104L21.6104 70.5306C21.6104 70.5306 21.7704 71.0206 21.4504 71.0906C21.4504 71.0906 20.9604 71.1106 20.9604 71.3706V71.7206C20.9604 71.7206 20.8204 72.0706 21.4504 72.0706H24.7904C24.7904 72.0706 25.1704 72.1906 25.1704 71.7606L25.1504 71.4306L25.1404 71.4406ZM20.5504 68.4306H17.8704C17.1904 68.4306 17.5404 67.8006 17.5404 67.8006L18.9504 64.1306C19.2304 63.5706 19.5104 64.1306 19.5104 64.1306L20.6904 67.7306C20.9704 68.6206 20.5504 68.4306 20.5504 68.4306ZM87.7004 70.9906H86.1004C86.1004 70.9906 85.6804 71.1106 85.6804 70.5706V66.5006C85.6804 66.5006 85.6104 66.1206 86.0304 66.1206H87.2304C87.2304 66.1206 87.5604 66.0706 87.8204 66.6106L87.9904 66.9606C87.9904 66.9606 88.0804 67.3606 88.5804 67.2406C88.5804 67.2406 89.0504 67.3106 88.9104 66.7706C88.7704 66.2306 88.8904 66.7006 88.8904 66.7006L88.2104 64.6106C88.2104 64.6106 88.1604 64.3306 87.8104 64.3306L87.4804 64.3106C87.4804 64.3106 87.1304 64.2906 87.2004 64.7106C87.2004 64.7106 87.2904 65.1606 86.8004 65.1606H86.1004C86.1004 65.1606 85.7204 65.2506 85.7204 64.5706V63.3706C85.7204 63.3706 85.6504 63.0206 86.1704 63.0206H88.6204C88.6204 63.0206 89.1804 62.8306 89.5404 63.6306L89.7304 64.0306C89.7304 64.0306 89.7304 64.4306 90.2904 64.3106C90.2904 64.3106 90.9004 64.3806 90.7104 63.8206L90.2604 62.4606C90.2604 62.4606 90.2404 62.1506 89.8404 62.1506H82.8504C82.8504 62.1506 82.4504 62.0606 82.4504 62.5006V62.7406C82.4504 62.7406 82.3804 62.9506 82.8504 63.0706C82.8504 63.0706 83.3704 63.0906 83.3704 63.7706L83.3204 70.4306C83.3204 70.4306 83.3204 71.0406 82.9204 71.1606C82.9204 71.1606 82.4704 71.0206 82.4504 71.5406C82.4504 71.5406 82.2604 71.9606 82.9004 71.9906H89.9604C89.9604 71.9906 90.2204 72.0806 90.3804 71.7806L90.9704 70.3706C90.9704 70.3706 91.1804 69.9206 90.7404 69.9206H90.2904C90.2904 69.9206 90.0504 69.8506 89.9404 70.1306L89.6804 70.5806C89.6804 70.5806 89.6304 70.9806 88.9504 71.0006H87.7304L87.7004 70.9906ZM31.4904 70.9906H29.8904C29.8904 70.9906 29.4704 71.1106 29.4704 70.5706V66.5006C29.4704 66.5006 29.4004 66.1206 29.8204 66.1206H31.0204C31.0204 66.1206 31.3504 66.0706 31.6104 66.6106L31.7804 66.9606C31.7804 66.9606 31.8704 67.3606 32.3704 67.2406C32.3704 67.2406 32.8404 67.3106 32.7004 66.7706C32.5604 66.2306 32.6804 66.7006 32.6804 66.7006L32.0004 64.6106C32.0004 64.6106 31.9504 64.3306 31.6004 64.3306L31.2704 64.3106C31.2704 64.3106 30.9204 64.2906 30.9904 64.7106C30.9904 64.7106 31.0804 65.1606 30.5904 65.1606H29.8804C29.8804 65.1606 29.5004 65.2506 29.5004 64.5706V63.3706C29.5004 63.3706 29.4304 63.0206 29.9504 63.0206H32.4004C32.4004 63.0206 32.9604 62.8306 33.3204 63.6306L33.5104 64.0306C33.5104 64.0306 33.5104 64.4306 34.0704 64.3106C34.0704 64.3106 34.6804 64.3806 34.4904 63.8206L34.0404 62.4606C34.0404 62.4606 34.0204 62.1506 33.6204 62.1506H26.6304C26.6304 62.1506 26.2304 62.0606 26.2304 62.5006V62.7406C26.2304 62.7406 26.1604 62.9506 26.6304 63.0706C26.6304 63.0706 27.1504 63.0906 27.1504 63.7706L27.1004 70.4306C27.1004 70.4306 27.1004 71.0406 26.7004 71.1606C26.7004 71.1606 26.2504 71.0206 26.2304 71.5406C26.2304 71.5406 26.0404 71.9606 26.6804 71.9906H33.7404C33.7404 71.9906 34.0004 72.0806 34.1604 71.7806L34.7504 70.3706C34.7504 70.3706 34.9604 69.9206 34.5104 69.9206H34.0604C34.0604 69.9206 33.8204 69.8506 33.7104 70.1306L33.4504 70.5806C33.4504 70.5806 33.4004 70.9806 32.7204 71.0006H31.5004L31.4904 70.9906ZM51.5504 71.0706H49.9504C49.9504 71.0706 49.5304 71.1906 49.5304 70.6506V66.5806C49.5304 66.5806 49.4604 66.2006 49.8804 66.2006H51.0804C51.0804 66.2006 51.4104 66.1506 51.6704 66.6906L51.8304 67.0406C51.8304 67.0406 51.9204 67.4406 52.4204 67.3206C52.4204 67.3206 52.8904 67.3906 52.7504 66.8506C52.6104 66.3106 52.7304 66.7806 52.7304 66.7806L52.0504 64.6906C52.0504 64.6906 52.0004 64.4106 51.6504 64.4106L51.3204 64.3906C51.3204 64.3906 50.9704 64.3706 51.0404 64.7906C51.0404 64.7906 51.1304 65.2406 50.6404 65.2406H49.9304C49.9304 65.2406 49.5504 65.3306 49.5504 64.6506V63.4506C49.5504 63.4506 49.4804 63.1006 50.0004 63.1006H52.4504C52.4504 63.1006 53.0104 62.9106 53.3704 63.7106L53.5604 64.1106C53.5604 64.1106 53.5604 64.5106 54.1204 64.3906C54.1204 64.3906 54.7304 64.4606 54.5404 63.9006L54.0904 62.5406C54.0904 62.5406 54.0704 62.2306 53.6704 62.2306H46.6904C46.6904 62.2306 46.2904 62.1406 46.2904 62.5806V62.8206C46.2904 62.8206 46.2204 63.0306 46.6904 63.1506C46.6904 63.1506 47.2104 63.1706 47.2104 63.8606L47.1604 70.5206C47.1604 70.5206 47.1604 71.1306 46.7604 71.2506C46.7604 71.2506 46.3104 71.1106 46.2904 71.6306C46.2904 71.6306 46.1004 72.0506 46.7404 72.0806H53.8004C53.8004 72.0806 54.0604 72.1706 54.2204 71.8706L54.8104 70.4606C54.8104 70.4606 55.0204 70.0106 54.5704 70.0106H54.1204C54.1204 70.0106 53.8904 69.9406 53.7704 70.2206L53.5104 70.6706C53.5104 70.6706 53.4604 71.0706 52.7804 71.0906H51.5604L51.5504 71.0706ZM40.2904 61.9306C40.2904 61.9306 35.7504 61.9106 35.4204 66.9606C35.0904 72.0606 40.0804 72.1406 40.0804 72.1406C40.0804 72.1406 41.7704 72.3506 43.9604 70.8706C44.0704 70.7806 44.1504 70.6806 44.2104 70.5606C44.2704 70.4406 44.3004 70.3106 44.3104 70.1706L44.4004 69.2306C44.4004 69.2306 44.1904 68.4606 45.0404 68.4606C45.1304 68.4506 45.2204 68.4006 45.2804 68.3306C45.3404 68.2606 45.3704 68.1706 45.3704 68.0806V67.9206C45.3704 67.9206 45.3904 67.6106 44.8504 67.6106H41.2804C41.2804 67.6106 40.8804 67.5406 40.8804 67.8706V68.1106C40.8804 68.1106 40.8604 68.4406 41.2804 68.4406C41.2804 68.4406 42.1504 68.3706 42.1504 69.2406C42.1504 69.2406 42.3404 71.3106 40.1504 71.3106C37.9604 71.3106 38.0104 69.2606 37.9404 66.6306C37.8704 64.0206 38.6904 62.7506 40.4804 62.7706C42.2704 62.7906 42.8804 64.2306 43.0704 64.5606C43.0704 64.5606 43.1904 64.8906 43.6104 64.8406L44.0604 64.6506C44.0604 64.6506 44.3404 64.7206 44.2304 64.3006L43.6204 62.3706C43.6204 62.3706 43.6204 62.0206 43.2904 62.0906C43.2204 62.0906 43.1504 62.1106 43.1004 62.1406C43.0404 62.1806 43.0004 62.2306 42.9704 62.2906C42.9704 62.2906 43.0504 62.8306 42.1704 62.4606C42.1704 62.4606 41.4604 61.9406 40.3104 61.9406L40.2904 61.9306ZM66.9404 71.4806C66.9404 71.4806 66.9904 71.2206 66.5404 71.2006H66.3404C66.3404 71.2006 65.7704 71.2406 65.2504 70.4306C65.2504 70.4306 63.9404 67.9406 63.1204 67.3806C63.1204 67.3806 62.8604 67.1906 63.1204 67.0906C63.1204 67.0906 64.2304 66.8806 64.8804 66.2406C64.8804 66.2406 65.6304 65.9306 65.6104 64.4006C65.6104 64.4006 65.7704 62.1706 62.5204 62.1406H56.5404C56.5404 62.1406 56.1404 62.0506 56.1404 62.4906V62.7306C56.1404 62.7306 56.0704 62.9406 56.5404 63.0606C56.5404 63.0606 57.0604 63.0806 57.0604 63.7606L57.0104 70.4206C57.0104 70.4206 57.0604 71.1306 56.5204 71.1506C56.5204 71.1506 56.0404 71.1006 56.0804 71.5606C56.0804 71.5606 55.9204 72.0406 56.5604 72.0706H59.8504C59.8504 72.0706 60.3304 72.1606 60.3404 71.8306V71.4506C60.3404 71.4506 60.3504 71.1506 59.8904 71.1506C59.7504 71.1206 59.6304 71.0406 59.5404 70.9406C59.4504 70.8306 59.4004 70.7006 59.3904 70.5606V67.8106C59.3904 67.8106 59.3204 67.4306 59.7404 67.4306H60.4104C60.6704 67.4306 60.9304 67.5006 61.1604 67.6406C61.3904 67.7806 61.5704 67.9806 61.6804 68.2106L63.1304 70.9406C63.1304 70.9406 63.6004 72.0506 64.8004 72.0706H66.6804C66.6804 72.0706 66.9604 72.1406 66.9604 71.7406L66.9404 71.4806ZM61.5004 66.5006L59.7904 66.4706H59.7404C59.6404 66.4706 59.4104 66.4106 59.4104 65.8806V63.3606C59.4104 63.3606 59.3404 63.0106 59.8504 63.0106L61.8204 63.0606C61.8204 63.0606 63.4004 63.0606 63.4204 64.5606C63.4304 66.0006 62.6504 66.4906 61.5004 66.4906V66.5006ZM154.25 71.4806C154.25 71.4806 154.3 71.2206 153.85 71.2006H153.65C153.65 71.2006 153.08 71.2406 152.56 70.4306C152.56 70.4306 151.25 67.9406 150.43 67.3806C150.43 67.3806 150.17 67.1906 150.43 67.0906C150.43 67.0906 151.54 66.8806 152.19 66.2406C152.19 66.2406 152.94 65.9306 152.92 64.4006C152.92 64.4006 153.09 62.1706 149.83 62.1406H143.85C143.85 62.1406 143.45 62.0506 143.45 62.4906V62.7306C143.45 62.7306 143.38 62.9406 143.85 63.0606C143.85 63.0606 144.37 63.0806 144.37 63.7606L144.32 70.4206C144.32 70.4206 144.37 71.1306 143.82 71.1506C143.82 71.1506 143.35 71.1006 143.38 71.5606C143.38 71.5606 143.22 72.0406 143.85 72.0706H147.14C147.14 72.0706 147.63 72.1606 147.63 71.8306V71.4506C147.63 71.4506 147.64 71.1506 147.18 71.1506C147.04 71.1206 146.92 71.0406 146.83 70.9406C146.74 70.8406 146.69 70.7006 146.68 70.5606V67.8106C146.68 67.8106 146.61 67.4306 147.03 67.4306H147.7C147.96 67.4306 148.22 67.5006 148.45 67.6406C148.68 67.7806 148.86 67.9806 148.97 68.2106L150.42 70.9406C150.42 70.9406 150.89 72.0506 152.09 72.0706H153.97C153.97 72.0706 154.25 72.1406 154.25 71.7406L154.23 71.4806H154.25ZM148.81 66.5006L147.1 66.4706H147.05C146.95 66.4706 146.72 66.4106 146.72 65.8806V63.3606C146.72 63.3606 146.65 63.0106 147.16 63.0106L149.13 63.0606C149.13 63.0606 150.71 63.0606 150.73 64.5606C150.74 66.0006 149.96 66.4906 148.81 66.4906V66.5006ZM71.8504 67.8606C71.9004 67.8606 71.9504 67.8506 72.0004 67.8306C72.0504 67.8106 72.0904 67.7806 72.1304 67.7406C72.1704 67.7006 72.2004 67.6606 72.2204 67.6106C72.2404 67.5606 72.2504 67.5106 72.2504 67.4606V66.6106C72.2504 66.5006 72.2104 66.4006 72.1304 66.3306C72.0604 66.2606 71.9504 66.2106 71.8504 66.2106H68.0204C67.9704 66.2106 67.9204 66.2206 67.8704 66.2406C67.8204 66.2606 67.7804 66.2906 67.7404 66.3306C67.7004 66.3706 67.6704 66.4106 67.6504 66.4606C67.6304 66.5106 67.6204 66.5606 67.6204 66.6106V67.4606C67.6204 67.5706 67.6604 67.6706 67.7404 67.7406C67.8204 67.8206 67.9204 67.8606 68.0204 67.8606H71.8504ZM74.0304 62.0806C74.0304 62.0806 73.7404 62.1006 73.7404 62.3706V62.6706C73.7404 62.6706 73.7004 63.0306 74.1604 62.9506C74.1604 62.9506 74.9204 62.8806 74.9204 63.6606V70.5006C74.9204 70.5006 74.9904 71.0106 74.3904 71.0306C74.3904 71.0306 74.0004 71.0106 73.9804 71.3106V71.7106C73.9804 71.7106 73.9804 72.0606 74.3004 72.0906H80.6504C80.6504 72.0906 80.8604 72.1906 81.1104 71.7006L81.7504 70.3106C81.7504 70.3106 81.9104 69.9206 81.5404 69.9206H81.0804C81.0804 69.9206 80.8304 69.9206 80.7404 70.1306L80.5104 70.5706C80.5104 70.5706 80.2704 71.1106 79.6804 71.0306H77.7904C77.7904 71.0306 77.2404 71.1006 77.2304 70.5706V63.6406C77.2304 63.6406 77.1604 63.0106 77.7104 62.9906H77.9704C77.9704 62.9906 78.2304 63.0306 78.2204 62.6606V62.4106C78.2204 62.4106 78.2704 62.1006 77.8804 62.1006H74.0304V62.0806ZM126.9 62.0806C126.9 62.0806 126.61 62.1006 126.61 62.3706V62.6706C126.61 62.6706 126.57 63.0306 127.03 62.9506C127.03 62.9506 127.79 62.8806 127.79 63.6606V70.5006C127.79 70.5006 127.86 71.0106 127.26 71.0306C127.26 71.0306 126.87 71.0106 126.86 71.3106V71.7106C126.86 71.7106 126.86 72.0606 127.18 72.0906H133.53C133.53 72.0906 133.74 72.1906 133.99 71.7006L134.63 70.3106C134.63 70.3106 134.79 69.9206 134.42 69.9206H133.96C133.96 69.9206 133.72 69.9206 133.62 70.1306L133.39 70.5706C133.39 70.5706 133.15 71.1106 132.56 71.0306H130.67C130.67 71.0306 130.12 71.1006 130.11 70.5706V63.6406C130.11 63.6406 130.04 63.0106 130.58 62.9906H130.85C130.85 62.9906 131.1 63.0306 131.1 62.6606V62.4106C131.1 62.4106 131.15 62.1006 130.77 62.1006H126.92L126.9 62.0806ZM98.2104 57.5406C98.2104 57.5406 91.9304 57.2106 91.8604 64.9506C91.8604 64.9506 91.5804 71.7006 98.0704 72.0306C98.0704 72.0306 99.5704 72.1206 100.92 71.2806C100.92 71.2806 101.34 71.0906 101.44 71.4506C101.44 71.4506 101.51 71.9206 102.01 71.8706C102.01 71.8706 102.5 71.8506 102.55 71.4006L103.42 68.7406C103.42 68.7406 103.59 68.2906 103.21 68.2906L102.88 68.2706C102.88 68.2706 102.62 68.2706 102.48 68.6006C102.48 68.6006 102.01 69.6806 101.45 70.0806C101.45 70.0806 100.56 71.1306 98.5604 71.0706C98.5604 71.0706 94.8004 71.1606 94.9404 64.9506C94.9404 64.9506 94.6104 58.5306 98.6804 58.5506C98.6804 58.5506 100.63 58.4106 102.04 60.5006C102.04 60.5006 102.21 60.9006 102.63 60.9006H103.03C103.03 60.9006 103.36 60.9206 103.24 60.3806L102.6 57.9306C102.6 57.9306 102.53 57.6206 102.27 57.6206H101.8C101.74 57.6406 101.69 57.6906 101.65 57.7506C101.62 57.8106 101.61 57.8806 101.63 57.9506C101.63 57.9506 101.7 58.2606 101.54 58.3506C101.54 58.3506 101.42 58.5406 101.09 58.3506C101.09 58.3506 99.9304 57.5706 98.2204 57.5306L98.2104 57.5406ZM114.42 66.9506C114.3 61.9706 109.46 61.9806 109.46 61.9806C109.46 61.9806 104.61 61.9606 104.5 66.9506C104.5 66.9506 104.43 71.8606 109.46 72.0806C114.5 71.8706 114.42 66.9506 114.42 66.9506ZM111.78 69.0406C111.33 71.4906 109.45 71.1306 109.45 71.1306C109.45 71.1306 107.57 71.4906 107.12 69.0406C106.7 66.7606 107.07 68.6806 107.12 68.9406C106.88 67.4106 106.92 65.8506 107.24 64.3306C107.24 64.3306 107.66 62.7506 109.45 62.8006C111.24 62.7506 111.66 64.3306 111.66 64.3306C111.98 65.8506 112.02 67.4106 111.78 68.9406C111.83 68.6806 112.19 66.7506 111.78 69.0406ZM115.78 62.0806C115.78 62.0806 115.45 62.0806 115.45 62.3706V62.6706C115.45 62.6706 115.43 62.9706 115.87 62.9706L116.08 62.9506C116.08 62.9506 116.52 62.8806 116.52 63.6206V68.6506C116.52 68.6506 116.69 72.1106 120.59 72.1206C120.59 72.1206 124.6 72.3306 124.47 68.5206V63.5306C124.47 63.5306 124.38 62.9506 124.98 62.9306H125.16C125.16 62.9306 125.39 62.9306 125.39 62.6706V62.4106C125.39 62.4106 125.48 62.0906 125.13 62.0906H122.78C122.78 62.0906 122.46 62.0806 122.46 62.3406L122.44 62.5706C122.44 62.5706 122.37 62.9406 122.77 62.9406C122.77 62.9406 123.41 62.8306 123.42 63.6806V68.5706C123.42 68.5706 123.67 71.1306 121.36 71.1306C121.36 71.1306 118.78 71.5706 118.78 68.4106V63.5106C118.78 63.5106 118.85 62.9606 119.35 62.9506H119.49C119.49 62.9506 119.72 62.9906 119.74 62.6506V62.4006C119.74 62.4006 119.81 62.1006 119.51 62.0906H115.77L115.78 62.0806ZM133.97 62.0806C133.88 62.0806 133.8 62.1006 133.73 62.1506C133.66 62.2006 133.6 62.2606 133.56 62.3406L132.95 63.8206C132.95 63.8206 132.8 64.1506 133.16 64.1506H133.63C133.63 64.1506 133.81 64.2206 134 63.8806L134.34 63.2106C134.4 63.1406 134.47 63.0806 134.56 63.0406C134.65 63.0006 134.74 62.9806 134.83 62.9906H136.24C136.24 62.9906 136.66 62.9306 136.67 63.5106V70.6206C136.67 70.6206 136.74 71.1106 136.45 71.1606H136.07C136.01 71.1606 135.95 71.2006 135.91 71.2506C135.87 71.3006 135.85 71.3606 135.85 71.4206V71.8006C135.85 71.8006 135.8 72.0806 136.13 72.0806H139.79C139.79 72.0806 140.04 72.1306 140.04 71.8206V71.5406C140.04 71.5406 140.1 71.1906 139.83 71.1906H139.4C139.4 71.1906 138.94 71.3006 138.99 70.5106V63.5406C138.99 63.5406 138.84 63.0006 139.39 63.0006H140.79C140.79 63.0006 141.06 62.9206 141.27 63.2906L141.61 63.8806C141.66 63.9606 141.72 64.0306 141.8 64.0806C141.88 64.1306 141.97 64.1606 142.06 64.1706H142.51C142.51 64.1706 142.84 64.1706 142.7 63.7906L142.08 62.3106C142.08 62.3106 142.06 62.1006 141.58 62.1006H133.98L133.97 62.0806ZM120.28 31.8606C106.28 38.1306 94.2904 38.5806 94.2904 38.5806V10.4106H105.37L98.8304 0.870605L86.6504 0.960605L84.0104 4.70061L81.3804 0.960605L69.2104 0.870605L62.6704 10.4106H73.7504V38.5806C73.7504 38.5806 61.7604 38.1306 47.7604 31.8606L39.5804 43.1306C39.5804 43.1306 41.6704 44.1306 50.4804 47.2206L53.1204 43.2206C53.1204 43.2206 66.6004 48.0606 84.0104 47.9506C101.42 48.0606 114.91 43.2206 114.91 43.2206L117.54 47.2206C126.36 44.1306 128.44 43.1306 128.44 43.1306L120.26 31.8606H120.28ZM83.0204 45.5906C67.8504 46.0406 52.4004 40.6806 52.4004 40.6806L49.7604 44.5006C44.6704 42.9606 42.8604 41.9506 42.8604 41.9506L48.3104 34.4106C61.8504 40.2306 75.5704 40.7706 75.5704 40.7706V8.33061H66.2104L70.1204 2.88061H80.2104L83.0304 6.98061V45.5906H83.0204ZM115.65 40.6806C115.65 40.6806 100.2 46.0406 85.0304 45.5906V6.96061L87.8504 2.87061H97.9404L101.85 8.32061H92.4904V40.7606C92.4904 40.7606 106.22 40.2206 119.75 34.4006L125.2 41.9406C125.2 41.9406 123.38 42.9406 118.3 44.4906L115.67 40.6706L115.65 40.6806Z" fill="black"/>
</g>
<defs>
<clipPath id="clip0_678_149">
<rect width="167.999" height="78.8454" fill="white" transform="translate(0 0.870605)"/>
</clipPath>
</defs>
</svg>
