<svg width="168" height="92" viewBox="0 0 168 92" fill="none" xmlns="http://www.w3.org/2000/svg">
<g clip-path="url(#clip0_678_169)">
<path d="M22.1565 63.9152H13.9527L12.2902 68.2617H9.91469L17.1051 50.0545H19.3086L26.3787 68.2617H23.815L22.1565 63.9152ZM14.7054 61.9402H21.4079L18.0708 53.1874L14.7054 61.9402ZM2.31168 51.9933V58.5789H5.51645C5.51645 58.5789 6.09706 58.5587 6.39005 58.5587C7.36378 58.5587 8.00822 58.3464 8.62109 57.7812C9.24201 57.2046 9.51485 56.2632 9.51485 55.278C9.55059 54.3508 9.22787 53.4455 8.6137 52.7499C7.98067 52.0571 6.7993 51.9926 6.5977 51.9926L2.31168 51.9933ZM0 50.0586H6.27312C7.21862 50.0586 8.90131 50.279 10.0363 51.201C11.5987 52.4778 11.8789 54.1255 11.8789 55.239C11.8789 56.3525 11.6068 57.843 10.5168 58.9081C9.09485 60.3025 7.60435 60.5149 5.51376 60.5149H2.31168V68.2584H0V50.0586ZM87.2256 50.0545H89.5326V57.8659H97.7128V50.0545H100.02V68.2617H97.7128V59.8772H89.5319V68.2617H87.2256V50.0545ZM104.098 50.0545H106.406V68.2536H104.098V50.0545ZM110.375 50.0545H112.683V66.2497H120.57V68.2657H110.375L110.375 50.0545ZM37.0877 50.0545V52.0705H31.5464V68.2657H29.2354V52.0705H23.6752V50.0545H37.0877ZM49.3658 50.0545L48.216 52.0705H41.3327V57.7664H47.7664V59.7858H41.3327V66.2471H48.0628L49.2166 68.2631H39.0257V50.0545H49.3658ZM54.1524 58.5889L61.9833 50.0465L64.8675 50.0505L58.8672 56.54L64.9958 68.2577H62.3616L57.2766 58.2308L54.1518 61.5955V68.2577H51.8448V50.0505H54.1518L54.1524 58.5889ZM75.0113 51.9912V58.5768H78.2161C78.2161 58.5768 78.7967 58.5567 79.0897 58.5567C80.0708 58.5567 80.7159 58.3443 81.3207 57.7792C81.9417 57.2026 82.2138 56.2611 82.2138 55.276C82.2508 54.3479 81.9263 53.4416 81.3086 52.7479C80.6837 52.0551 79.4983 51.9906 79.2859 51.9906L75.0113 51.9912ZM72.7003 50.0566H78.9734C79.9189 50.0566 81.609 50.277 82.7467 51.199C84.3051 52.4758 84.5853 54.1235 84.5853 55.237C84.5853 56.3505 84.3165 57.841 83.2238 58.9061C81.7972 60.3005 80.3074 60.5129 78.2161 60.5129H75.0113V68.2563H72.7003V50.0566ZM122.518 50.0525H124.817V68.2516H122.518V50.0525ZM131.04 51.9933V58.5789H134.245C134.245 58.5789 134.818 58.5587 135.118 58.5587C136.091 58.5587 136.741 58.3464 137.345 57.7812C137.97 57.2046 138.238 56.2632 138.238 55.278C138.277 54.3503 137.954 53.4438 137.337 52.7499C136.704 52.0571 135.519 51.9926 135.315 51.9926L131.04 51.9933ZM128.732 50.0586H135.005C135.958 50.0586 137.632 50.279 138.768 51.201C140.334 52.4778 140.611 54.1255 140.611 55.239C140.611 56.3525 140.342 57.843 139.249 58.9081C137.831 60.3025 136.333 60.5149 134.245 60.5149H131.04V68.2584H128.732V50.0586ZM145.461 51.9933V58.5789H148.666C148.666 58.5789 149.239 58.5587 149.539 58.5587C150.513 58.5587 151.162 58.3464 151.766 57.7812C152.391 57.2046 152.664 56.2632 152.664 55.278C152.701 54.3498 152.377 53.4434 151.758 52.7499C151.125 52.0571 149.948 51.9926 149.736 51.9926L145.461 51.9933ZM143.154 50.0586H149.423C150.369 50.0586 152.051 50.279 153.186 51.201C154.753 52.4778 155.03 54.1255 155.03 55.239C155.03 56.3525 154.761 57.843 153.668 58.9081C152.25 60.3025 150.755 60.5149 148.668 60.5149H145.459V68.2584H143.152L143.154 50.0586ZM167.999 50.0545L166.849 52.0705H159.964V57.7664H166.401V59.7858H159.964V66.2471H166.706L167.849 68.2631H157.657V50.0545H167.999ZM89.0232 90.0607H93.9187L94.756 91.527H87.3412V78.2953H96.3742L100.22 89.2436L104.222 78.2953H105.944L100.925 91.5337H99.3216L95.051 79.7563H89.0259V83.9065H93.705V85.3769H89.0259L89.0232 90.0607ZM73.5 78.2953L72.6667 79.7536H67.6549V83.9079H72.3341V85.3661H67.6509V90.0607H72.5565L73.3858 91.527H65.9736V78.2953H73.5ZM82.99 78.3625H84.592V91.5942H82.8818L76.8808 80.775V91.5942H75.2781V78.3679H77.4614L82.992 88.3471L82.99 78.3625ZM114.929 78.2953L114.091 79.7536H109.084V83.9079H113.77V85.3661H109.082V90.0607H113.988L114.817 91.527H107.406V78.2953H114.929ZM63.5094 84.7613V89.5601C62.4194 90.5936 61.0371 91.7636 58.3014 91.7636C55.229 91.7636 52.455 89.1636 52.455 85.0436C52.455 81.1339 55.0664 78.0548 58.6562 78.0548C61.568 78.0548 63.006 79.849 63.551 80.6547L62.3495 81.7844C62.3495 81.7844 61.1278 79.4687 58.6535 79.4687C56.2215 79.4687 54.2949 81.6479 54.2949 85.1208C54.2949 88.4096 56.366 90.345 58.5729 90.345C60.4921 90.345 61.7776 89.0507 61.8657 88.9546V86.1994H57.8451V84.7573L63.5094 84.7613Z" fill="#211E1E"/>
<path d="M83.1587 20.9475H75.0275C73.7177 20.9475 72.3878 21.7486 72.3878 22.8224C72.3878 23.2108 72.7037 23.944 73.7896 23.944C75.1914 23.944 76.3977 22.4978 77.6516 22.4978C78.7571 22.4978 78.913 23.5112 78.913 23.5112C78.2524 23.4958 78.0118 23.5273 77.1947 23.9319C76.4212 24.3089 75.3917 25.2423 74.7083 25.9748C74.0248 26.7073 72.9255 27.6548 71.6036 27.6548C70.2818 27.6548 68.9761 26.8054 68.9761 25.2672C68.9761 23.2283 70.6023 22.5751 70.6023 21.8346C70.6023 21.6142 70.4982 21.3292 70.0695 21.3292C69.4122 21.3292 68.1207 22.2909 66.8768 22.2909C65.1699 22.2909 63.6841 20.3683 63.6841 20.3683C63.6841 20.3683 65.1625 18.449 66.8768 18.449C68.1227 18.449 69.4122 19.4107 70.0695 19.4107C70.4982 19.4107 70.6023 19.1224 70.6023 18.8979C70.6023 18.1688 68.9761 17.5116 68.9761 15.4707C68.9761 13.9325 70.2737 13.0831 71.6036 13.0831C72.9335 13.0831 74.0275 14.0286 74.7083 14.7631C75.389 15.4976 76.4185 16.4297 77.1947 16.806C78.0118 17.2092 78.2524 17.2388 78.913 17.2267C78.913 17.2267 78.753 18.2401 77.6516 18.2401C76.3977 18.2401 75.1955 16.7899 73.7896 16.7899C72.7003 16.7899 72.3878 17.5291 72.3878 17.9121C72.3878 18.9934 73.7177 19.7937 75.0315 19.7937H83.1627V11.6625C83.1627 10.3488 82.3563 9.02693 81.2811 9.02693C80.8927 9.02693 80.1595 9.33538 80.1595 10.4287C80.1595 11.8272 81.6097 13.0368 81.6097 14.2907C81.6097 15.3881 80.5923 15.544 80.5923 15.544C80.6084 14.8834 80.5802 14.6509 80.1716 13.8297C79.7993 13.0609 78.8659 12.0274 78.1288 11.3433C77.3916 10.6592 76.4488 9.55647 76.4488 8.23464C76.4488 6.91282 77.3022 5.60713 78.8404 5.60713C80.8752 5.60713 81.5365 7.24143 82.2737 7.24143C82.49 7.24143 82.7743 7.13324 82.7743 6.70383C82.7743 6.04325 81.8127 4.75503 81.8127 3.50712C81.8127 1.80092 83.7359 0.314453 83.7359 0.314453C83.7359 0.314453 85.6585 1.79688 85.6585 3.50712C85.6585 4.75704 84.6969 6.04325 84.6969 6.70383C84.6969 7.13257 84.9818 7.24143 85.2016 7.24143C85.9347 7.24143 86.596 5.60713 88.6288 5.60713C90.167 5.60713 91.0204 6.90879 91.0204 8.23464C91.0204 9.5605 90.0749 10.6585 89.3404 11.3393C88.6059 12.02 87.6738 13.0583 87.2895 13.8257C86.8863 14.6509 86.8607 14.8834 86.8769 15.544C86.8769 15.544 85.8594 15.3841 85.8594 14.2907C85.8594 13.0368 87.3096 11.8272 87.3096 10.4287C87.3096 9.33538 86.5765 9.02693 86.188 9.02693C85.1128 9.02693 84.3064 10.3488 84.3064 11.6625V19.7937H92.4377C93.7481 19.7937 95.0739 18.9927 95.0739 17.9121C95.0739 17.523 94.7695 16.7899 93.6714 16.7899C92.2777 16.7899 91.0641 18.2401 89.8101 18.2401C88.708 18.2401 88.5562 17.2267 88.5562 17.2267C89.2174 17.2388 89.4573 17.2105 90.2745 16.802C91.0439 16.4297 92.0734 15.4963 92.7542 14.7591C93.4349 14.0219 94.545 13.0791 95.8628 13.0791C97.1927 13.0791 98.491 13.9325 98.491 15.4707C98.491 17.5096 96.8561 18.1668 96.8561 18.8979C96.8561 19.1224 96.9602 19.4107 97.3937 19.4107C98.0549 19.4107 99.3425 18.449 100.586 18.449C102.297 18.449 103.779 20.3723 103.779 20.3723C103.779 20.3723 102.301 22.2909 100.586 22.2909C99.3404 22.2909 98.0549 21.3292 97.3937 21.3292C96.9569 21.3292 96.8561 21.6142 96.8561 21.8346C96.8561 22.5738 98.491 23.2283 98.491 25.2672C98.491 26.8054 97.1927 27.6548 95.8628 27.6548C94.533 27.6548 93.4396 26.7093 92.7542 25.9748C92.0687 25.2403 91.0439 24.3089 90.2678 23.9319C89.4546 23.5233 89.2147 23.4991 88.5535 23.5112C88.5535 23.5112 88.7054 22.4978 89.8074 22.4978C91.0614 22.4978 92.275 23.948 93.6688 23.948C94.7668 23.948 95.0712 23.2088 95.0712 22.8265C95.0712 21.7445 93.7454 20.9449 92.435 20.9449H84.3038V29.0761C84.3038 30.3905 85.1102 31.7123 86.1854 31.7123C86.5738 31.7123 87.3069 31.4039 87.3069 30.3139C87.3069 28.9121 85.8568 27.6985 85.8568 26.4485C85.8568 25.3512 86.8742 25.1946 86.8742 25.1946C86.858 25.8558 86.8863 26.0917 87.2868 26.9089C87.6712 27.6783 88.6005 28.7118 89.3377 29.3953C90.0749 30.0787 91.0177 31.1821 91.0177 32.508C91.0177 33.8338 90.1643 35.1288 88.6261 35.1288C86.5912 35.1288 85.93 33.5025 85.1989 33.5025C84.9791 33.5025 84.6942 33.6026 84.6942 34.0307C84.6942 34.692 85.6558 35.9795 85.6558 37.2234C85.6558 38.9343 83.7332 40.4167 83.7332 40.4167C83.7332 40.4167 81.81 38.9343 81.81 37.2234C81.81 35.9822 82.7716 34.692 82.7716 34.0307C82.7716 33.6026 82.4873 33.5025 82.271 33.5025C81.5318 33.5025 80.8725 35.1288 78.8377 35.1288C77.2995 35.1288 76.4461 33.8264 76.4461 32.508C76.4461 31.1895 77.3956 30.0807 78.1261 29.3993C78.8565 28.7179 79.7967 27.681 80.1689 26.9129C80.5775 26.0917 80.6057 25.8558 80.5896 25.1905C80.5896 25.1905 81.607 25.3512 81.607 26.4485C81.607 27.6985 80.1569 28.9121 80.1569 30.3139C80.1569 31.4039 80.89 31.7123 81.2784 31.7123C82.3536 31.7123 83.16 30.3905 83.16 29.0761L83.1587 20.9475Z" fill="#B09145"/>
</g>
<defs>
<clipPath id="clip0_678_169">
<rect width="167.999" height="91.4491" fill="white" transform="translate(0 0.314453)"/>
</clipPath>
</defs>
</svg>
