<svg width="168" height="67" viewBox="0 0 168 67" fill="none" xmlns="http://www.w3.org/2000/svg">
<g clip-path="url(#clip0_678_237)">
<path d="M34.6049 16.7064C34.6049 16.7064 36.1335 17.0423 36.7886 18.3425L37.3328 22.9282V52.8297L36.7886 57.3046C36.7886 57.3046 36.1335 58.724 34.6049 59.0516V59.27H45.5233V59.0516C45.5233 59.0516 43.9964 58.724 43.4505 57.3046C43.4505 57.3046 42.7954 55.9961 42.7954 52.8297V22.9215C42.7954 22.9215 42.7954 19.7552 43.4505 18.3358C43.6502 17.9257 43.9401 17.5661 44.2985 17.2839C44.6569 17.0017 45.0745 16.8043 45.52 16.7064V16.488H34.6015V16.7064" fill="black"/>
<path d="M168 11.7847H167.891L165.926 8.18327L163.196 4.68936C163.196 4.68936 161.232 3.16077 157.848 2.9424L153.591 2.83322V55.5593C153.591 55.5593 153.591 61.672 154.354 63.5282C154.354 63.5282 155.336 65.8194 158.721 66.2561V66.4745H142.565V66.2595C142.565 66.2595 145.841 65.9235 146.932 63.5315C146.932 63.5315 147.697 61.6754 147.697 55.5627V2.83322H144.203L139.399 3.92506C139.399 3.92506 137.435 5.01691 135.797 7.52816L133.504 11.7847H133.286L136.016 0.866211H165.38L168 11.7847Z" fill="black"/>
<path d="M96.8266 15.0602C96.8266 15.0602 91.4783 15.0602 87.8752 18.3341C87.8752 18.3341 81.66 23.7933 81.66 37.3289C81.66 37.3289 81.66 51.0828 87.4451 57.1954C87.4451 57.1954 89.5196 59.3791 92.1384 60.3618L95.7415 61.0169L99.998 59.9251L104.475 58.9424L107.639 59.27V37.1105H97.1542V37.3289C97.1542 37.3289 100.21 37.7656 101.083 39.7309C101.083 39.7309 101.847 41.4779 101.847 46.3895V52.0654L101.302 55.341C101.302 55.341 100.428 57.8505 98.5736 58.6148L95.6256 59.1608L93.9878 58.724L92.3501 57.7414L90.383 55.1226L89.0728 50.2093C89.0728 50.2093 87.8718 44.8609 87.8718 37.3289C87.8718 37.3289 87.8718 29.1417 89.4004 24.4484C89.4004 24.4484 91.8008 17.0255 96.8233 16.9164C96.8233 16.9164 99.5529 16.9164 101.953 18.4433C101.953 18.4433 105.338 20.627 107.412 25.4311H107.517L104.795 16.4796L104.686 16.5888L104.14 17.3531L102.721 16.698C100.934 15.6437 98.9012 15.0788 96.8266 15.0602Z" fill="black"/>
<path d="M117.566 22.9215V52.8297L117.13 57.3046C117.13 57.3046 116.693 58.724 115.166 59.0516V59.27H136.015L139.18 49.445H139.071C139.071 49.445 137.223 53.8124 134.268 55.5593C134.268 55.5593 131.102 57.4071 125.317 57.4071H123.138V38.5299H126.086L130.344 38.6391C131.056 38.8615 131.714 39.2284 132.277 39.7169C132.841 40.2054 133.297 40.8049 133.618 41.4779H133.721L131.1 30.8954H130.882C130.882 30.8954 131.318 34.3876 129.901 35.5886C129.901 35.5886 128.809 36.4621 126.079 36.4621H123.138V18.3341H126.85L133.618 19.2076C133.618 19.2076 135.802 20.4086 137.549 24.3392V24.2301H137.658L135.256 16.4796H115.166V16.7064C115.166 16.7064 116.693 17.0423 117.13 18.4517C117.13 18.4517 117.566 19.5435 117.566 22.9282" fill="black"/>
<path d="M0 0.869571V1.08458C0 1.08458 3.38473 1.42053 4.36739 3.59415C4.36739 3.59415 5.13168 5.55947 5.13168 11.6721V55.6769C5.13168 55.6769 5.13168 61.7896 4.36739 63.7549C4.36739 63.7549 3.38473 65.9386 0 66.3737V66.4829H16.156V66.3737C16.156 66.3737 12.8821 65.9235 11.8995 63.7398C11.8995 63.7398 11.1352 61.7745 11.1352 55.6618V35.1452L13.8631 35.036C13.8631 35.036 21.3968 35.036 25.7626 31.3254C25.7626 31.3254 30.7834 26.958 30.7834 18.0082C30.7834 18.0082 30.7834 8.83838 26.8544 4.79854C26.8544 4.79854 23.0329 0.869571 14.9549 0.869571H0ZM11.1352 2.9424H14.2998C14.2998 2.9424 20.0866 2.9424 22.3778 6.5455C22.3778 6.5455 24.4523 9.93022 24.4523 18.0082C24.4523 18.0082 24.4523 26.0845 20.9601 29.906C18.8516 31.8612 16.0852 32.9525 13.2097 32.9632H11.1352V2.9424Z" fill="black"/>
<path d="M64.8503 12.003L52.9425 53.2665L50.9788 57.9597C50.9788 57.9597 50.2146 59.0516 49.0135 59.0516L49.1227 59.27H56.218V59.0516C56.218 59.0516 54.1435 58.724 54.1435 56.8679L55.2354 51.8454L58.9476 38.5282H66.043L70.0744 53.0464C70.0744 53.0464 70.9479 55.6669 69.6377 57.3029L66.6981 59.0516V59.27H80.8887V59.0516C80.8887 59.0516 79.0326 58.6148 78.0499 57.523C78.0499 57.523 76.9581 56.3236 76.1938 53.7032L64.8503 12.003ZM62.5491 25.8661L65.4971 36.4487H59.6028L62.5491 25.8661Z" fill="black"/>
</g>
<defs>
<clipPath id="clip0_678_237">
<rect width="168" height="65.6166" fill="white" transform="translate(0 0.866211)"/>
</clipPath>
</defs>
</svg>
