<svg width="168" height="95" viewBox="0 0 168 95" fill="none" xmlns="http://www.w3.org/2000/svg">
<g clip-path="url(#clip0_678_183)">
<path d="M84.0094 43.6003C89.1466 43.6003 93.3201 44.909 93.3201 46.5271C93.3201 48.1452 89.1555 49.4538 84.0094 49.4538C78.8633 49.4538 74.6986 48.1452 74.6986 46.5713C74.6986 44.9974 78.8721 43.6445 84.0094 43.6445M63.6371 17.3923C63.8853 17.3892 64.1321 17.3536 64.371 17.2862L72.8241 46.0231C73.7702 49.2328 78.4388 51.6643 84.0536 51.6643C89.6683 51.6643 94.3458 49.2328 95.2831 46.0231L103.727 17.3127C103.939 17.362 104.155 17.3887 104.373 17.3923C105.11 17.3988 105.824 17.1331 106.378 16.6461C106.932 16.1591 107.287 15.4849 107.375 14.7525C107.463 14.0201 107.278 13.2811 106.855 12.6767C106.433 12.0722 105.802 11.645 105.084 11.4766C104.365 11.3082 103.61 11.4105 102.963 11.7639C102.316 12.1174 101.821 12.6972 101.574 13.3923C101.328 14.0874 101.346 14.8491 101.626 15.5317C101.905 16.2142 102.427 16.7696 103.091 17.0916L93.3025 38.074L94.8763 9.77919H94.9382C95.6851 9.77537 96.4027 9.48874 96.9467 8.977C97.4907 8.46525 97.8206 7.76642 97.8699 7.0212C97.9193 6.27598 97.6845 5.53973 97.2128 4.9607C96.7411 4.38166 96.0675 4.00285 95.3277 3.90054C94.5879 3.79822 93.8368 3.98001 93.2257 4.40928C92.6145 4.83856 92.1887 5.48345 92.0339 6.21409C91.8792 6.94474 92.007 7.70688 92.3917 8.34705C92.7764 8.98722 93.3893 9.45787 94.1071 9.66424L87.5904 37.3047L84.4515 6.83477C85.1983 6.72958 85.8775 6.34508 86.352 5.75883C86.8266 5.17257 87.0611 4.42818 87.0084 3.67579C86.9557 2.92341 86.6196 2.219 86.0679 1.70466C85.5163 1.19031 84.7901 0.904297 84.0359 0.904297C83.2817 0.904297 82.5555 1.19031 82.0038 1.70466C81.4522 2.219 81.1161 2.92341 81.0634 3.67579C81.0107 4.42818 81.2452 5.17257 81.7197 5.75883C82.1943 6.34508 82.8735 6.72958 83.6203 6.83477L80.4814 37.2605L73.9824 9.67309C74.711 9.47328 75.3364 9.00419 75.7323 8.36073C76.1281 7.71727 76.2648 6.94747 76.1146 6.20708C75.9644 5.46669 75.5386 4.81098 74.9234 4.3726C74.3081 3.93422 73.5493 3.74591 72.8005 3.84575C72.0516 3.9456 71.3687 4.32615 70.8897 4.91042C70.4108 5.49469 70.1717 6.23906 70.2208 6.99293C70.2698 7.7468 70.6034 8.4539 71.154 8.97116C71.7046 9.48843 72.4311 9.77725 73.1866 9.77919H73.2308L74.8047 38.074L64.99 17.0563C65.6164 16.7159 66.0965 16.1581 66.3398 15.488C66.583 14.8179 66.5725 14.0819 66.3103 13.419C66.0481 12.7561 65.5522 12.2121 64.9164 11.8897C64.2805 11.5674 63.5487 11.489 62.8589 11.6693C62.1692 11.8496 61.5694 12.2762 61.1727 12.8685C60.7759 13.4608 60.6098 14.1778 60.7055 14.8843C60.8013 15.5907 61.1524 16.2376 61.6924 16.7029C62.2325 17.1683 62.9243 17.4198 63.6371 17.4099" fill="#97741F"/>
<path d="M57.5973 87.7225C57.121 88.4452 56.5226 89.0795 55.8289 89.5971C54.7505 90.4889 53.4151 91.0124 52.018 91.0914C51.7438 91.0914 51.4697 91.1356 51.2045 91.1356C50.9327 91.1346 50.6612 91.1198 50.391 91.0914C48.9909 91.0137 47.6524 90.4901 46.5712 89.5971C45.8754 89.0818 45.2766 88.4471 44.8028 87.7225C43.0477 85.1423 42.1392 82.0799 42.2032 78.96C42.1563 76.01 42.9606 73.1089 44.5198 70.6042C45.3297 69.1602 46.5952 68.0252 48.1186 67.3768L48.3396 67.2884C48.5397 67.2006 48.7467 67.1296 48.9586 67.0762C50.4022 66.6552 51.936 66.6552 53.3796 67.0762C53.5918 67.1381 53.8041 67.2088 54.0074 67.2884L54.2285 67.3768C55.7486 68.0303 57.0127 69.1639 57.8272 70.6042C59.3938 73.1968 60.1959 76.1793 60.1411 79.208C60.0864 82.2366 59.177 85.1882 57.5177 87.7225M51.2133 63.7073C48.2105 63.7474 45.2866 64.6746 42.8093 66.3723C40.3321 68.0699 38.4123 70.4622 37.2912 73.2483C36.1702 76.0343 35.898 79.0896 36.509 82.0299C37.12 84.9702 38.5868 87.6641 40.725 89.7729C42.8632 91.8817 45.5772 93.311 48.5256 93.8812C51.4741 94.4515 54.5254 94.137 57.2956 92.9775C60.0658 91.818 62.4313 89.8652 64.0945 87.3647C65.7577 84.8642 66.6443 81.9277 66.6428 78.9246C66.5985 74.8657 64.952 70.9887 62.0619 68.1384C59.1718 65.2881 55.2725 63.6954 51.2133 63.7073Z" fill="#004C25"/>
<path d="M97.1928 82.0989H95.053V86.3608C95.0231 87.6009 94.5099 88.7803 93.6229 89.6474C92.7359 90.5146 91.5453 91.001 90.3048 91.003H81.277V66.9082H85.4151V64.7772H70.4719V66.9082H74.61V91.0206H70.4719V93.1693H97.1928V82.0901" fill="#004C25"/>
<path d="M129.767 64.7861H101.676V66.9082H105.734V91.0472H101.676V93.1958H129.909V82.9743H127.76V86.3608C127.746 87.6101 127.239 88.8033 126.35 89.681C125.461 90.5586 124.261 91.0496 123.012 91.0472H112.401V79.0838H115.761C116.689 79.1 117.572 79.4798 118.222 80.1413C118.872 80.8029 119.236 81.6932 119.236 82.6206V84.2653H121.199V72.3461H119.298V73.7166C119.298 73.7166 119.298 73.7697 119.298 73.7962C119.295 74.2443 119.202 74.6871 119.024 75.0984C118.846 75.5097 118.587 75.8811 118.263 76.1904C117.939 76.4997 117.556 76.7407 117.137 76.899C116.718 77.0574 116.271 77.1298 115.823 77.112H112.419V66.9082H123.083C124.33 66.9127 125.525 67.4078 126.41 68.2863C127.295 69.1648 127.799 70.3563 127.813 71.6033V74.5212H129.909V64.7949H129.75" fill="#004C25"/>
<path d="M166.612 91.1356C164.552 91.0825 164.065 90.4459 162.474 88.6244L153.066 76.9174L159.255 69.4901C160.926 67.5802 161.386 66.9258 163.535 66.8905H165.153V64.8214H153.658V66.9082H156.178C156.357 66.9073 156.533 66.9559 156.686 67.0487C156.84 67.1415 156.964 67.2748 157.047 67.4339C157.129 67.5931 157.166 67.7719 157.153 67.9506C157.14 68.1293 157.078 68.301 156.974 68.4467L151.465 75.0252L147.133 69.6404L146.248 68.4997C146.107 68.3277 146.029 68.1123 146.027 67.8896C146.027 67.6309 146.13 67.3826 146.312 67.1987C146.494 67.0149 146.741 66.9105 147 66.9082H149.467V64.8214H135.213V66.9082H135.894C137.725 66.9966 138.255 67.6155 139.688 69.269L148.008 79.632L140.51 88.5802C138.839 90.4901 138.379 91.1444 136.221 91.1798H134.453V93.2577H146.708V91.1798H143.693C143.433 91.1798 143.183 91.0764 142.999 90.8923C142.815 90.7083 142.712 90.4586 142.712 90.1983C142.717 89.9806 142.791 89.7701 142.924 89.5971L149.582 81.6391L155.117 88.5272L155.957 89.5794C156.071 89.7234 156.143 89.8966 156.164 90.0793C156.184 90.2619 156.153 90.4468 156.074 90.6126C155.995 90.7785 155.87 90.9188 155.715 91.0175C155.56 91.1162 155.38 91.1694 155.197 91.171H152.544V93.24H168V91.1621H166.629" fill="#004C25"/>
<path d="M17.6135 77.2623H10.7167V66.9082H17.6135C20.5933 67.032 22.9188 69.0922 22.9188 72.0985C22.9188 75.1048 20.5403 77.1739 17.6135 77.3065M30.8767 91.0472L29.0022 85.5916C28.118 83.16 27.499 82.0547 26.1285 80.808C25.2179 80.0798 24.1583 79.5606 23.0249 79.2871C24.8184 78.9671 26.4284 77.9907 27.5412 76.5483C28.654 75.1058 29.1897 73.3006 29.044 71.4847C28.8983 69.6687 28.0816 67.9721 26.753 66.7255C25.4244 65.4789 23.6793 64.7718 21.8577 64.7418H0.0707369V66.9082H4.06738V91.0472H0V93.1958H14.784V91.0472H10.699V79.4198H14.8106C15.7082 79.4522 16.5987 79.5917 17.4632 79.8354C18.1732 79.9876 18.856 80.247 19.488 80.6046C20.3604 81.1574 21.0832 81.9166 21.5925 82.8151C21.7655 83.1007 21.9219 83.3959 22.0611 83.6994C23.2725 85.9718 23.9975 89.1196 24.8022 93.1251H34.0864V90.9764H30.8767V91.0472Z" fill="#004C25"/>
</g>
<defs>
<clipPath id="clip0_678_183">
<rect width="168" height="93.2539" fill="white" transform="translate(0 0.904297)"/>
</clipPath>
</defs>
</svg>
