<svg width="168" height="95" viewBox="0 0 168 95" fill="none" xmlns="http://www.w3.org/2000/svg">
<g clip-path="url(#clip0_1111_202)">
<path d="M97.3697 18.0231V9.2744C93.9221 10.2919 90.2219 10.1986 86.9422 8.93524V18.0231H97.3697ZM81.3087 18.0231V8.93694C77.9629 10.1812 74.3025 10.3002 70.8829 9.2761V17.9366H81.3087V18.0231ZM101.998 23.2377C101.658 35.093 94.7666 45.7715 84.0881 50.8165C78.8529 48.3125 74.4103 44.4123 71.2494 39.5454C68.0886 34.6785 66.3322 29.0337 66.1737 23.2326V0.697021C70.2945 5.99472 78.7871 7.08851 84.0847 1.54492C88.1208 6.0015 96.6134 7.26318 101.994 0.697021L101.998 23.2377ZM97.2052 23.2377H70.9677C71.0903 27.7469 72.3587 32.1507 74.6535 36.0342C76.9483 39.9177 80.194 43.1532 84.0847 45.4357C87.9751 43.1527 91.2204 39.9171 93.5151 36.0337C95.8099 32.1503 97.0786 27.7467 97.2018 23.2377" fill="#BE0100"/>
<path d="M156.901 77.634C157.765 77.4198 158.546 76.9538 159.145 76.295C159.743 75.6362 160.133 74.8143 160.264 73.9338C160.684 71.4121 158.919 68.9735 156.396 68.6378H156.145C154.798 68.4682 153.538 68.2986 152.192 68.2986H146.558V78.1343H153.867C154.888 78.0466 155.901 77.8765 156.894 77.6255M151.344 81.3258H146.558V89.313C146.561 89.4556 146.593 89.5962 146.651 89.7264C146.709 89.8567 146.793 89.9738 146.897 90.071C146.941 90.119 147.002 90.1487 147.067 90.1541L148.084 90.4068L150.353 90.6595V93.7696H137.225V90.5832L139.495 90.3305C139.849 90.3285 140.198 90.2424 140.513 90.0795C140.577 90.0712 140.637 90.0413 140.682 89.9947C140.794 89.9043 140.884 89.7887 140.943 89.6572C141.001 89.5258 141.029 89.3823 141.021 89.2384V69.5671C141.021 69.2279 140.937 68.9786 140.682 68.8107C140.599 68.7259 140.599 68.7259 140.513 68.7259C140.219 68.5765 139.909 68.4627 139.588 68.3868C138.741 68.2172 137.991 68.0476 137.15 67.878V65.1054H157.5C158.903 65.1075 160.275 65.5163 161.451 66.2823C162.874 67.2492 163.962 68.6349 164.563 70.2475C165.164 71.8601 165.249 73.6197 164.806 75.2826C164.362 76.9454 163.413 78.4292 162.088 79.5284C160.764 80.6276 159.131 81.2877 157.415 81.4173L163.04 89.0773C163.255 89.3774 163.531 89.6289 163.85 89.8159C164.169 90.0028 164.523 90.1209 164.89 90.1626C165.907 90.3322 166.993 90.4153 168.002 90.5018V93.6984H159.845L151.344 81.3258ZM118.642 64.0964C121.685 64.0961 124.661 64.9982 127.191 66.6889C129.722 68.3795 131.695 70.7826 132.86 73.5943C134.024 76.406 134.329 79.5 133.736 82.4851C133.142 85.4701 131.677 88.2121 129.525 90.3643C127.373 92.5165 124.631 93.9822 121.646 94.5761C118.661 95.1699 115.567 94.8653 112.755 93.7007C109.944 92.5361 107.54 90.5638 105.849 88.0333C104.158 85.5027 103.256 82.5276 103.256 79.4841C103.258 75.4039 104.879 71.4913 107.764 68.6059C110.649 65.7206 114.562 64.0986 118.642 64.0964ZM125.116 87.9767C126.544 85.383 127.215 82.4404 127.051 79.4841C127.215 76.5279 126.544 73.5852 125.116 70.9915C123.682 68.7276 121.25 67.371 118.642 67.4609C117.346 67.4208 116.063 67.7268 114.925 68.3474C113.787 68.968 112.835 69.8807 112.167 70.9915C110.741 73.5857 110.071 76.5281 110.234 79.4841C110.071 82.4401 110.741 85.3826 112.167 87.9767C113.597 90.2474 116.035 91.5922 118.642 91.5074C121.25 91.5922 123.687 90.2474 125.116 87.9767ZM82.9062 65.1902C85.744 65.2935 88.5382 65.9207 91.1478 67.0403C97.8734 70.3183 100.733 78.3903 97.7055 85.2024C96.396 87.6449 94.4926 89.7186 92.1709 91.2321C89.8492 92.7456 87.1839 93.6503 84.4206 93.8628H69.2855V91.0037C70.0418 91.0037 70.7982 90.9189 71.6393 90.8341C71.954 90.8181 72.2652 90.7611 72.5652 90.6646C72.7707 90.6478 72.9707 90.5901 73.1536 90.495C73.3368 90.1884 73.4242 89.8341 73.4046 89.4775V69.3941C73.3215 68.8853 73.0654 68.4699 72.6483 68.3003C72.3607 68.1378 72.0485 68.0233 71.7241 67.9611C70.9739 67.8067 70.2159 67.6934 69.4534 67.622V65.1054H82.9062V65.1902ZM79.2907 68.3885C79.12 68.666 79.0329 68.9869 79.0398 69.3127L78.955 89.4928C78.9575 89.8471 79.0441 90.1959 79.2076 90.5102C79.3859 90.6165 79.5886 90.6749 79.7961 90.6798C80.1353 90.7629 80.3845 90.7629 80.7203 90.8494C81.5034 90.9201 82.2897 90.9478 83.0758 90.9325C86.1859 91.2717 89.1298 89.7556 90.8103 87.1492C91.9648 84.8928 92.5526 82.3893 92.5231 79.8549C92.4935 77.3205 91.8475 74.8314 90.6408 72.6025C89.8242 71.3211 88.7244 70.2442 87.4261 69.4548C86.1278 68.6654 84.6656 68.1845 83.1521 68.0493H80.8051C80.4659 68.0493 80.2167 68.1324 79.8792 68.1324C79.6282 68.2172 79.4586 68.2172 79.2907 68.3851M5.80135 90.4984H5.88614C6.64247 90.4984 7.48359 90.4153 8.23992 90.4153C8.75502 90.4133 9.26642 90.328 9.75427 90.1626C10.0934 89.993 10.4326 89.6539 10.4326 89.2384V68.4699H8.91315C8.37932 68.4561 7.84522 68.4838 7.3157 68.553C6.46655 68.7174 5.69697 69.1616 5.12981 69.8146C4.04908 71.0794 3.27233 72.5749 2.85913 74.1864H0V65.1902H26.9073V74.1864H24.0482C23.635 72.5749 22.8583 71.0794 21.7775 69.8146C21.2096 69.1635 20.4401 68.7211 19.5916 68.5581C19.0623 68.4867 18.528 68.459 17.9942 68.475H16.4798V89.3334C16.4798 89.7539 16.819 90.0914 17.1582 90.2593C17.6461 90.4241 18.1575 90.5089 18.6725 90.5102C19.4288 90.5102 20.27 90.595 21.0263 90.595H21.1094V93.8747H5.80135V90.4984ZM48.4322 90.5832C49.1885 90.5832 49.9465 90.5832 50.6181 90.4136C51.8143 90.1672 52.9003 89.5447 53.7174 88.637C54.5345 87.7293 55.0398 86.584 55.1594 85.3686V69.7299C55.1721 69.6103 55.1421 69.4902 55.0747 69.3907C54.9642 69.1882 54.8079 69.0143 54.6183 68.883C54.4287 68.7517 54.211 68.6665 53.9826 68.6344C53.1772 68.4548 52.3633 68.3161 51.544 68.2189H50.3671V65.2733H63.8199V68.2189H63.0636C62.2431 68.3107 61.4288 68.4511 60.625 68.6395C60.4002 68.6826 60.1868 68.7722 59.9985 68.9024C59.8102 69.0326 59.651 69.2007 59.5312 69.3958C59.4644 69.4955 59.435 69.6156 59.4481 69.7349V85.3753C59.4498 86.269 59.277 87.1544 58.9394 87.9818C58.4517 89.2519 57.7072 90.4078 56.7524 91.3771C55.7977 92.3464 54.6533 93.1083 53.3907 93.6153C51.6187 94.277 49.7291 94.5657 47.8404 94.4632C45.9548 94.5174 44.075 94.2302 42.2917 93.6153C41.1556 93.2916 40.0989 92.7365 39.1877 91.9847C38.2766 91.2329 37.5309 90.3008 36.9974 89.2469C36.4999 88.2553 36.2409 87.1613 36.241 86.052V69.7383C36.2537 69.6188 36.2237 69.4987 36.1563 69.3992C36.0457 69.1965 35.8891 69.0225 35.6992 68.8911C35.5092 68.7598 35.2912 68.6747 35.0625 68.6428C34.223 68.3902 33.2971 68.3037 32.3729 68.1341V65.1902H46.0784V68.1324C45.1678 68.2205 44.2671 68.3908 43.3872 68.6411C43.1625 68.6842 42.9493 68.7737 42.7612 68.9039C42.5731 69.0341 42.4144 69.2023 42.2951 69.3975C42.2276 69.497 42.1976 69.6171 42.2103 69.7366V85.4601C42.2247 86.5739 42.6019 87.6526 43.2846 88.5327C43.9674 89.4128 44.9184 90.0464 45.9936 90.3373C46.7957 90.5043 47.6129 90.589 48.4322 90.5899" fill="black"/>
</g>
<defs>
<clipPath id="clip0_1111_202">
<rect width="168.002" height="94.1748" fill="white" transform="translate(0 0.697021)"/>
</clipPath>
</defs>
</svg>
