<svg width="150" height="32" viewBox="0 0 150 32" fill="none" xmlns="http://www.w3.org/2000/svg">
<path d="M42.1458 17.9056L40.9609 9.73145H43.8765L45.1323 18.3095C45.332 19.6407 45.6604 20.1289 46.3172 20.1289C46.974 20.1289 47.3201 19.6363 47.5198 18.3095L48.7579 9.73145H51.6912L52.9471 18.3095C53.1468 19.6407 53.4752 20.1289 54.1319 20.1289C54.7887 20.1289 55.1348 19.6363 55.3345 18.3095L56.5726 9.73145H59.5059L58.3033 17.9056C57.7575 21.4913 56.7191 22.7693 54.3139 22.7693C51.9087 22.7693 50.8525 21.4025 50.5995 18.1453L50.2712 14.32H50.2002L49.854 18.1453C49.6011 21.4025 48.4872 22.7693 46.1397 22.7693C43.7922 22.7693 42.7005 21.4957 42.1502 17.9056H42.1458Z" fill="#3A3935"/>
<path d="M72.5552 22.4763H69.6397L69.1648 19.2191H63.9373L63.4624 22.4763H60.5469L61.714 14.4087C62.2776 10.7653 63.5512 9.43848 66.5377 9.43848C69.5243 9.43848 70.8156 10.7698 71.3615 14.4087L72.5463 22.4763H72.5552ZM64.3411 16.5565H68.7654L68.4903 14.6439C68.1974 12.7135 67.727 12.0744 66.5422 12.0744C65.3573 12.0744 64.9047 12.7135 64.6118 14.6439L64.3366 16.5565H64.3411Z" fill="#3A3935"/>
<path d="M79.7514 22.4764H76.8181V12.3719H72.9219V9.73145H83.6477V12.3719H79.7514V22.4764Z" fill="#3A3935"/>
<path d="M84.8828 16.1038C84.8828 11.5508 86.8132 9.43848 90.9269 9.43848C94.5702 9.43848 96.4607 11.0405 96.8823 14.5551H93.9312C93.6206 12.8422 92.7286 12.0789 90.9269 12.0789C88.7436 12.0789 87.8117 13.2061 87.8117 16.1038C87.8117 19.0016 88.7391 20.1288 90.9269 20.1288C92.7286 20.1288 93.6206 19.3655 93.9312 17.6526H96.8823C96.4651 21.1672 94.5702 22.7692 90.9269 22.7692C86.8132 22.7692 84.8828 20.6569 84.8828 16.1038Z" fill="#3A3935"/>
<path d="M107.191 14.5907V9.72705H110.125V22.472H107.191V17.2445H102.004V22.472H99.0703V9.72705H102.004V14.5907H107.191Z" fill="#3A3935"/>
<path d="M122.964 18.9439C122.964 21.2736 120.923 22.7691 117.736 22.7691C114.333 22.7691 112.256 21.2204 112.109 18.5622H115.043C115.278 19.7293 116.152 20.2929 117.719 20.2929C119.156 20.2929 120.031 19.6761 120.031 18.6199C120.031 17.5638 119.303 17.1466 117.608 17.1466H115.97V14.7059H117.59C119.156 14.7059 119.813 14.3243 119.813 13.4145C119.813 12.5048 118.974 11.9235 117.648 11.9235C116.321 11.9235 115.464 12.4338 115.282 13.3968H112.349C112.566 10.8673 114.497 9.44727 117.683 9.44727C120.869 9.44727 122.746 10.8673 122.746 13.1083C122.746 14.6571 121.983 15.6023 120.545 15.8198C122.094 16.0549 122.968 17.1688 122.968 18.9527L122.964 18.9439Z" fill="#979797"/>
<path d="M135.488 18.2516C135.488 20.963 133.376 22.7692 130.189 22.7692C126.528 22.7692 124.562 20.6924 124.562 16.7606C124.562 11.9368 126.564 9.44287 130.336 9.44287C133.07 9.44287 134.889 10.8452 135.217 13.1927H132.302C132.027 12.354 131.339 11.9191 130.243 11.9191C128.512 11.9191 127.62 13.0463 127.514 15.5047C128.206 14.7947 129.444 14.3376 130.753 14.3376C133.722 14.3376 135.488 15.7932 135.488 18.2516ZM132.555 18.3049C132.555 17.1777 131.734 16.5387 130.207 16.5387C128.84 16.5387 127.496 17.2132 127.496 17.9943C127.496 19.4143 128.516 20.2885 130.118 20.2885C131.592 20.2885 132.559 19.5075 132.559 18.3049H132.555Z" fill="#979797"/>
<path d="M137.062 16.1038C137.062 11.5508 138.993 9.43848 143.107 9.43848C147.22 9.43848 149.151 11.5508 149.151 16.1038C149.151 20.6569 147.22 22.7692 143.107 22.7692C138.993 22.7692 137.062 20.6569 137.062 16.1038ZM146.222 16.1038C146.222 13.1883 145.294 12.0789 143.107 12.0789C140.919 12.0789 139.991 13.1883 139.991 16.1038C139.991 19.0194 140.901 20.1288 143.107 20.1288C145.312 20.1288 146.222 19.0194 146.222 16.1038Z" fill="#979797"/>
<path d="M16.0249 31.9959C15.2084 31.9959 14.3874 31.9338 13.562 31.8095C9.3418 31.1616 5.62747 28.9162 3.098 25.477C0.572973 22.0378 -0.456565 17.8265 0.186896 13.6107C1.52707 4.91285 9.70125 -1.08243 18.4168 0.262178C20.4626 0.577252 22.3974 1.26953 24.1725 2.32125C24.8248 2.70733 25.0378 3.55049 24.6473 4.20282C24.2568 4.85516 23.4136 5.06373 22.7613 4.67765C21.2924 3.80343 19.6904 3.23098 17.9952 2.96915C10.784 1.86861 4.01216 6.82548 2.90718 14.0278C2.37023 17.5203 3.23113 21.0038 5.32127 23.8528C7.41141 26.6973 10.4912 28.5612 13.988 29.0981C21.2081 30.2075 27.9756 25.2418 29.085 18.0439C29.3424 16.3576 29.2758 14.6535 28.8808 12.9938C28.7033 12.2572 29.1648 11.5161 29.9015 11.343C30.6426 11.17 31.3792 11.627 31.5523 12.3637C32.0271 14.3695 32.1115 16.4197 31.7964 18.461C31.1485 22.6724 28.8941 26.3823 25.455 28.9073C22.6859 30.9353 19.4064 32.0004 16.0294 32.0004L16.0249 31.9959ZM16.9657 20.2317L34.8806 2.34344C35.4175 1.80649 35.4175 0.94114 34.8806 0.404183C34.3436 -0.132775 33.4738 -0.132775 32.9369 0.404183L15.9894 17.3206L10.4956 11.8356C9.95863 11.2986 9.08885 11.2986 8.55189 11.8356C8.01494 12.3726 8.01494 13.2379 8.55189 13.7749L15.0176 20.2272C15.2838 20.4935 15.6388 20.6311 15.985 20.6311C16.3311 20.6311 16.6861 20.4979 16.9524 20.2272H16.9613L16.9657 20.2317Z" fill="#3A3935"/>
</svg>
